<?xml version="1.0" encoding="UTF-8" standalone="no"?>
<!-- Generator: Adobe Illustrator 20.1.0, SVG Export Plug-In . SVG Version: 6.00 Build 0)  -->

<svg
   version="1.1"
   id="Layer_1"
   x="0px"
   y="0px"
   viewBox="0 0 350 350"
   style="enable-background:new 0 0 350 350;"
   xml:space="preserve"
   sodipodi:docname="ucsd.svg"
   inkscape:version="1.1.1 (3bf5ae0d25, 2021-09-20)"
   xmlns:inkscape="http://www.inkscape.org/namespaces/inkscape"
   xmlns:sodipodi="http://sodipodi.sourceforge.net/DTD/sodipodi-0.dtd"
   xmlns="http://www.w3.org/2000/svg"
   xmlns:svg="http://www.w3.org/2000/svg"
   xmlns:rdf="http://www.w3.org/1999/02/22-rdf-syntax-ns#"
   xmlns:cc="http://creativecommons.org/ns#"
   xmlns:dc="http://purl.org/dc/elements/1.1/"><defs
   id="defs475" /><sodipodi:namedview
   id="namedview473"
   pagecolor="#ffffff"
   bordercolor="#999999"
   borderopacity="1"
   inkscape:pageshadow="0"
   inkscape:pageopacity="0"
   inkscape:pagecheckerboard="0"
   showgrid="false"
   inkscape:zoom="1.6728126"
   inkscape:cx="84.289179"
   inkscape:cy="168.87725"
   inkscape:window-width="1920"
   inkscape:window-height="991"
   inkscape:window-x="-9"
   inkscape:window-y="-9"
   inkscape:window-maximized="1"
   inkscape:current-layer="Layer_1" />
<style
   type="text/css"
   id="style2">
	.st0{fill:#10284A;}
	.st1{fill:#C6901B;}
</style>
<title
   id="title4">ucsd-seal</title>
<circle
   style="fill:#ffffff;stroke-width:0.401003;stroke-linecap:square;stroke-dasharray:0.401003, 19.2481;paint-order:stroke fill markers"
   id="path1368"
   cx="175.65613"
   cy="175.11987"
   r="171.76964" /><g
   id="g470"
   transform="matrix(0.93152733,0,0,0.9159,11.983163,21.915396)">
	<path
   class="st0"
   d="m 175.4,7.1 c -88.3,0 -160.2,71 -160.2,158.3 0,87.3 71.8,158.3 160.2,158.3 88.4,0 160.2,-71 160.2,-158.3 C 335.6,78.1 263.7,7.1 175.4,7.1 Z m -1.7,281.6 C 104.3,288.2 48.4,231.6 48.9,162.2 49.3,94.7 103,39.6 170.5,37.4 c 0.6,-1.6 1.2,-3.1 2.1,-4.5 0.2,-0.3 0.7,-0.3 1.4,-0.1 h 0.1 c 0.1,0.1 0.2,0.1 0.3,0.2 0.3,0.2 0.5,0.2 0.8,0.5 0.8,1.2 1.6,2.5 2.2,3.8 32.8,0.8 64.1,14.4 87.1,37.9 23.2,23.3 36.2,54.9 36.1,87.8 -0.3,69.3 -57.1,125.7 -126.9,125.7 z"
   id="path6" />
	<path
   class="st1"
   d="M 292.3,49.9 C 227.1,-14 122.9,-14 57.7,49.9 -6.1,112.4 -7.2,214.8 55.3,278.7 c 0.8,0.8 1.6,1.6 2.4,2.4 65.2,63.8 169.4,63.8 234.6,0 63.8,-62.5 64.9,-164.9 2.5,-228.7 -0.8,-0.9 -1.7,-1.7 -2.5,-2.5 z M 175.4,323.7 C 87.1,323.7 15.2,252.7 15.2,165.4 15.2,78.1 87.1,7.1 175.4,7.1 c 88.3,0 160.2,71 160.2,158.3 0,87.3 -71.9,158.3 -160.2,158.3 z"
   id="path8" />
	<path
   class="st1"
   d="m 150.4,58.8 2.2,2.9 v 0 l -47.2,7.4 v 0 l 3.1,-4 v 0 c 2.4,-0.3 41.9,-6.3 41.9,-6.3 z"
   id="path10" />
	<path
   class="st1"
   d="m 198.2,60 c 3.8,-0.1 45.8,7.5 46.2,8.9 0.2,0.7 0.2,-0.7 0.4,3 -1.9,-1 -40.9,-7.7 -49,-8.9 0.5,-1.3 1.3,-2.3 2.4,-3 z"
   id="path12" />
	<polygon
   class="st1"
   points="57.7,250.5 62.4,247.2 66,252.3 61.5,255.6 "
   id="polygon14" />
	<path
   class="st1"
   d="m 83,265.8 c 1.6,-2.2 5.3,0.1 6.3,0.9 4.1,2.9 3.5,5.1 2.8,6.6 v 0 l -0.1,0.1 2.9,1.9 0.1,-0.1 v 0 c 2.2,-3.3 0.6,-7.3 -4.2,-10.7 -4.4,-3.1 -8.7,-3.3 -10.8,-0.5 -2.4,3.4 1.1,7.2 3.4,9.6 3.6,3.8 5.3,5.6 4,7.5 -0.4,0.5 -1,0.9 -1.7,1 -1.9,0.1 -3.8,-0.6 -5.3,-1.9 -1,-0.6 -4.1,-3.1 -4,-5.9 0,-0.7 0.3,-1.4 0.7,-2 v 0 -0.3 l -3,-1.8 -0.1,0.2 v 0 c -0.5,0.7 -0.9,1.6 -1,2.4 -0.5,3.3 1.4,6.5 5.8,9.6 2.8,2 5.6,2.9 8,2.4 1.4,-0.2 2.6,-0.9 3.4,-2 2.7,-3.8 -1.3,-7.8 -4.5,-11.1 -3.1,-3.3 -3.7,-4.5 -2.7,-5.9 z"
   id="path16" />
	<path
   class="st1"
   d="M 110.3,277.7 91.7,291 95,292.9 v 0 c 0,0 5.3,-4 5.5,-4.1 0.2,-0.1 9,5 9.1,5.1 -0.1,0.1 -0.5,6.9 -0.5,6.9 v 0 l 3.6,2 1,-23.3 z m -7.6,9.5 c 0.3,-0.2 5.2,-3.8 5.2,-3.8 1,-0.7 2,-1.6 2.8,-2.5 -0.3,1.4 -0.4,2.8 -0.5,4.3 0,0 -0.4,5.7 -0.5,6.1 -0.3,-0.3 -6.7,-4 -7,-4.1 z"
   id="path18" />
	<path
   class="st1"
   d="m 141.8,290.8 c 0,0 -4.4,14.7 -4.6,15.3 -0.2,-0.5 -7.8,-19.1 -7.8,-19.1 v 0 l -3.5,-1.1 v 0.1 l -6,19.8 3.3,1 v 0 c 0,0 4.4,-14.8 4.7,-15.3 0.2,0.5 7.9,19.1 7.9,19.1 v 0 l 3.5,1 6,-20 z"
   id="path20" />
	<path
   class="st1"
   d="m 96.3,36 -1.6,-2.2 -0.1,0.1 -16.4,11.7 1.6,2.2 v 0 c 0,0 6.6,-4.6 6.8,-4.8 0.1,0.2 10.4,14.8 10.4,14.8 v 0 l 3,-2.1 v 0 c 0,0 -10.3,-14.6 -10.5,-14.9 0.2,-0.1 6.8,-4.8 6.8,-4.8 z"
   id="path22" />
	<polygon
   class="st1"
   points="81.8,69.9 84.5,67.5 70.6,52 70.5,52.1 67.9,54.4 "
   id="polygon24" />
	<polygon
   class="st1"
   points="20.9,169 41.7,168.3 41.5,164.6 20.7,165.3 "
   id="polygon26" />
	<path
   class="st1"
   d="m 71.9,70.1 c -3.8,-2.7 -7.8,1.3 -11.1,4.6 -3.4,3.4 -4.6,4 -6,3 -0.4,-0.3 -0.7,-0.8 -0.8,-1.3 -0.3,-1.8 1.1,-4.1 1.8,-5 2.8,-4.1 5.1,-3.6 6.6,-2.8 v 0 h 0.1 l 1.8,-3 -0.1,-0.1 v 0 c -3.4,-2.1 -7.3,-0.5 -10.7,4.4 -1.9,2.7 -2.7,5.4 -2.3,7.6 0.1,1.3 0.8,2.5 1.8,3.2 3.5,2.4 7.1,-1.2 9.5,-3.5 3.7,-3.6 5.5,-5.4 7.5,-4 0.6,0.4 0.9,1 1,1.6 0.3,1.4 -0.4,3.3 -1.8,5.4 -0.7,0.9 -3.1,4.1 -5.9,4 -0.7,-0.1 -1.4,-0.3 -2,-0.7 v 0 h -0.1 l -1.8,3 0.2,0.1 v 0 c 0.7,0.5 1.6,0.8 2.4,0.9 3.4,0.4 6.5,-1.5 9.6,-5.9 3.2,-4.6 3.3,-9.4 0.3,-11.5 z"
   id="path28" />
	<path
   class="st1"
   d="m 50.2,96.1 c 0.5,-1.3 0.8,-2.7 0.9,-4.1 0.1,-1.9 -0.9,-3.7 -2.5,-4.6 -2.2,-1.2 -4.9,-0.7 -6.6,1.1 -1.2,1.2 -2.2,2.6 -3,4.2 v 0 l -5.4,10 18.4,9.9 1.7,-3.2 v 0 c 0,0 -7.7,-4.3 -8,-4.3 0.1,-0.2 1.8,-3.3 1.8,-3.3 1.3,-2.4 2.1,-3.3 7.8,-4.2 v 0 l 5.4,-0.9 2.2,-4 -7.3,1.3 v 0 c -2,0.2 -3.8,0.9 -5.4,2.1 z m -6.9,7.7 c -0.2,-0.1 -5.5,-3 -5.7,-3.1 l 3.7,-6.9 c 0.5,-1.1 1.3,-2 2.2,-2.7 0.9,-0.8 2.1,-0.9 3.2,-0.4 1,0.6 1.6,1.6 1.5,2.7 0,0.2 0,0.3 0,0.5 -0.3,1.3 -0.8,2.6 -1.5,3.7 0.1,0.1 -2.9,5.4 -3.4,6.2 z"
   id="path30" />
	<path
   class="st1"
   d="m 46.7,205.9 c -2.8,-1.1 -5.5,0 -7,0.6 v 0 l -11.1,4.5 1.4,3.4 11,-4.6 v 0 c 2,-0.8 3.6,-1.2 5.1,-0.6 1.3,0.6 2.4,2 3.5,4.4 0.8,2.1 0.9,3.7 0.4,5.1 -0.8,1.8 -2.7,2.6 -4.1,3.1 v 0 l -11.1,4.5 1.4,3.4 11.1,-4.6 v 0 c 2.3,-0.9 4.5,-2 5.4,-4.4 0.9,-2.1 0.7,-5 -0.8,-8.4 -1.5,-3.4 -3.1,-5.5 -5.2,-6.4 z"
   id="path32" />
	<path
   class="st1"
   d="M 50.2,115.8 47.7,115 v 0 l -4.2,15 c -0.2,0 -6.2,-1.7 -6.4,-1.8 0,-0.2 3.8,-13.5 3.8,-13.5 v 0 l -2.6,-0.8 v 0 c 0,0 -3.7,13.3 -3.8,13.5 -0.3,0 -5.5,-1.6 -5.8,-1.6 0,-0.2 4,-14.4 4,-14.4 v 0 l -2.6,-0.8 v 0.2 l -5,17.8 20,5.6 z"
   id="path34" />
	<path
   class="st1"
   d="M 43.3,147.1 24,134.3 l -0.1,0.3 -0.5,3.4 14,8.9 v 0 c 0.9,0.5 1.9,1.1 2.9,1.6 -0.9,0.1 -1.8,0.4 -2.7,0.6 v 0 h -0.1 v 0 l -0.4,0.1 v 0 l -15.8,4.5 -0.5,3.9 22,-7 z"
   id="path36" />
	<path
   class="st1"
   d="m 45.3,192.8 c 0,0 -15.2,2.5 -15.8,2.6 0.3,-0.4 13.6,-15.6 13.6,-15.6 v 0 l -0.6,-3.6 h -0.1 l -20.4,3.5 0.6,3.4 v 0 c 0,0 15.3,-2.6 15.8,-2.7 -0.3,0.4 -13.6,15.6 -13.6,15.6 v 0 l 0.6,3.6 20.5,-3.4 z"
   id="path38" />
	<path
   class="st1"
   d="m 122.5,21 -0.3,0.1 -3.6,1.7 -2,7.6 v 0 c 0,0.3 -0.6,2.6 -1,4.3 v 0 c -1.2,-0.7 -2.4,-1.4 -3.6,-2 v 0 l -7.2,-3.6 -4,1.9 v 0 l 14.1,6.8 c 0,0.1 3.7,8 3.7,8 v 0 l 3.3,-1.5 v 0 c 0,0 -3.7,-7.9 -3.7,-8 0,-0.1 4.3,-15.3 4.3,-15.3 z"
   id="path40" />
	<polygon
   class="st1"
   points="197.8,315.4 201.4,314.9 198.5,294.3 198.3,294.3 194.8,294.7 "
   id="polygon42" />
	<path
   class="st1"
   d="m 213.5,308.8 c 0,-0.2 -1.8,-6.1 -1.9,-6.4 0.3,-0.1 13.5,-4 13.5,-4 v 0 l -0.8,-2.6 v 0 c 0,0 -13.2,3.8 -13.4,3.9 -0.1,-0.2 -1.6,-5.5 -1.7,-5.8 0.2,-0.1 14.4,-4.2 14.4,-4.2 v 0 l -0.8,-2.6 -0.1,0.1 -17.7,5.1 5.8,20 18.4,-5.4 -0.8,-2.6 v 0 z"
   id="path44" />
	<path
   class="st1"
   d="m 187.6,297.6 c -2.7,-2.5 -6.3,-2.5 -9.2,-2.5 h -8.9 V 316 h 9.2 c 3.7,0 6.4,-0.7 8.3,-2.1 2.5,-2.1 3.9,-5.2 3.7,-8.5 0.2,-3 -1,-5.8 -3.1,-7.8 z m -14.5,0.1 h 5.2 c 2.2,0 4.3,0 6,1.3 1.7,1.3 2.7,3.2 2.7,6 v 0 0.2 0 c 0,2.7 -0.7,4.7 -2,6 -1.9,1.9 -4.7,1.9 -6.6,1.9 h -5.3 z"
   id="path46" />
	<path
   class="st1"
   d="m 240.9,289.9 1.3,2.4 v 0 c 0,0 6.1,-3.4 6.3,-3.5 0.2,0.2 1.7,3.1 1.8,3.2 -1.2,2.1 -3,3.9 -5.1,5.2 -2.1,1.3 -4.6,1.7 -7,1.2 -2.1,-0.6 -3.8,-2.1 -4.7,-4.1 -1.1,-1.9 -1.4,-4.1 -0.9,-6.1 0.6,-2.1 2.1,-3.8 4.7,-5.2 4.8,-2.6 7.2,-0.4 8.2,0.5 v 0 0.1 l 0.2,-0.1 2.3,-2.1 -0.1,-0.1 v 0 c -1.2,-1.1 -4.6,-4.5 -11.9,-0.5 -3.5,1.9 -5.8,4.4 -6.7,7.3 -0.7,2.7 -0.4,5.6 1,8.1 1.2,2.4 3.4,4.2 5.9,4.9 3.1,0.9 6.7,0.3 10.3,-1.7 3.2,-1.7 5.8,-4.4 7.4,-7.7 v 0 0 l -3.8,-6.9 z"
   id="path48" />
	<path
   class="st1"
   d="m 274.2,268.2 c -1.4,-2.4 -3.7,-4.1 -6.4,-4.8 -3.3,-0.6 -6.7,0.2 -9.4,2.1 -2.9,1.7 -5,4.4 -5.8,7.6 -0.6,2.8 0.1,5.7 1.7,8.1 1.4,2.3 3.7,3.9 6.3,4.4 3.3,0.6 6.6,-0.1 9.3,-2 2.9,-1.7 5,-4.4 5.8,-7.6 0.6,-2.7 0.1,-5.5 -1.5,-7.8 z m -1.7,8 c -0.6,2.2 -2,4.1 -4,5.2 -4.1,2.7 -8.6,1.8 -11.2,-2.2 -1.2,-1.7 -1.8,-3.7 -1.6,-5.8 0.5,-2.4 2,-4.6 4.1,-5.9 1.9,-1.3 4.1,-1.7 6.4,-1.3 2.1,0.5 3.9,1.9 5,3.8 1.2,1.9 1.7,4.1 1.3,6.2 z"
   id="path50" />
	<path
   class="st1"
   d="m 159.6,12.3 c -3.4,0.1 -6.7,1.5 -9.1,4.1 -1.8,2.2 -2.7,5 -2.4,7.8 0.2,2.6 1.5,5.1 3.4,6.8 2.7,2.2 6.1,3.2 9.6,2.8 7.3,-0.5 11.9,-5.2 11.4,-11.6 -0.5,-6.4 -5.6,-10.4 -12.9,-9.9 z m 7.6,16.1 c -1.6,1.7 -3.8,2.7 -6.2,2.8 -2.3,0.3 -4.7,-0.4 -6.5,-1.9 -1.5,-1.4 -2.4,-3.3 -2.6,-5.3 -0.2,-2.1 0.3,-4.1 1.4,-5.9 1.6,-2 4,-3.1 6.6,-3.2 2.3,-0.3 4.7,0.4 6.4,1.9 1.6,1.5 2.5,3.5 2.6,5.6 0.2,2.2 -0.4,4.3 -1.7,6 z"
   id="path52" />
	<path
   class="st1"
   d="m 199.4,17.1 0.4,-2.7 -17.1,-2.6 -0.1,0.1 -3,20.5 3.6,0.5 v 0 c 0,0 1.4,-9 1.4,-9.2 l 11.7,1.8 v 0 l 0.4,-2.7 v 0 c 0,0 -11.5,-1.7 -11.7,-1.8 0,-0.2 0.9,-5.8 0.9,-6 0.1,0 13.5,2.1 13.5,2.1 z"
   id="path54" />
	<path
   class="st1"
   d="m 285.4,57.7 -2.6,-3 -0.1,0.1 -15.6,13.7 11.6,13.2 2,-1.8 v 0 c 0,0 -8.9,-10.1 -9,-10.3 0.3,-0.1 13.7,-11.9 13.7,-11.9 z"
   id="path56" />
	<path
   class="st1"
   d="m 240.6,41.2 c -1.2,1.6 -3.9,4 -8.7,2 -2,-0.7 -3.7,-2.2 -4.6,-4.1 -1.1,-2.4 -0.2,-5.4 0.3,-6.6 0.9,-2.3 3.7,-7.1 10.7,-4.4 4.1,1.6 4.6,4.4 4.6,6.4 v 0 0.1 l 3.5,0.7 v -0.2 0 c 0.2,-4.1 -2.4,-7.5 -7.1,-9.4 -3.6,-1.4 -7.1,-1.5 -9.9,-0.3 -2.4,1.1 -4.3,3.2 -5.3,5.7 -1.1,2.8 -1.1,6 0.1,8.9 1.1,2.4 3.5,4.3 7.1,5.8 2.9,1.2 8.4,2.4 12.4,-2.5 v 0 l 0.1,-0.1 -3.1,-2 z"
   id="path58" />
	<polygon
   class="st1"
   points="282.4,86.2 284.4,89.2 301.7,77.6 299.7,74.6 299.5,74.6 "
   id="polygon60" />
	<polygon
   class="st1"
   points="323.9,205.1 324.9,201.6 304.7,196.4 304.6,196.5 303.8,199.9 "
   id="polygon62" />
	<path
   class="st1"
   d="m 306.9,145.8 c 0,0 8.8,-0.8 9,-0.8 0,0.2 0.3,3.5 0.3,3.5 0,0.4 0.1,0.8 0.1,1.3 0,1.9 -0.7,3.2 -4.2,6.3 v 0 l -4,3.6 0.4,4.4 5.5,-4.9 v 0 c 1.5,-1.2 2.6,-2.8 3.2,-4.6 0.9,4.1 3.1,6.3 6.2,6.1 2.4,-0.2 4.3,-2 4.8,-4.3 0.3,-1.6 0.4,-3.3 0.1,-4.9 v 0 l -0.9,-10.9 h -0.2 l -20.6,1.8 z m 19,7.1 c 0,0.7 -0.1,1.4 -0.3,2.1 -0.4,1.1 -1.4,1.9 -2.5,2 -1.2,0.1 -2.4,-0.6 -3,-1.8 -0.5,-1.2 -0.8,-2.5 -0.8,-3.8 0,0 -0.5,-5.8 -0.6,-6.7 0.2,-0.1 6.2,-0.6 6.5,-0.6 0,0.2 0.6,7.5 0.6,7.5 0,0.4 0,0.8 0.1,1.3 z"
   id="path64" />
	<path
   class="st1"
   d="m 264.2,39.7 -0.1,0.1 -20.3,10.7 3.1,2.3 v 0 c 0,0 5.8,-3.2 5.9,-3.3 0.1,0.1 8.2,6.1 8.4,6.2 0,0.2 -1.4,6.8 -1.4,6.8 v 0 l 3.3,2.4 4.2,-22.9 z m -9,8.5 5.7,-3.1 c 1.1,-0.6 2.2,-1.3 3.2,-2.2 -0.4,1.4 -0.8,2.8 -1.1,4.2 0,0 -1,4.8 -1.2,5.9 -0.4,-0.2 -6.3,-4.6 -6.6,-4.8 z"
   id="path66" />
	<path
   class="st1"
   d="m 302.1,205.6 -1.6,3.2 v 0 l 4.3,5.3 c -0.1,0.2 -4.6,9.2 -4.6,9.4 l -7,-0.1 v 0 l -1.8,3.6 23.4,-0.1 1.6,-3.4 -14.3,-18 z m 11.3,18.3 c -1.4,-0.2 -2.9,-0.3 -4.4,-0.3 0,0 -5,-0.2 -6.1,-0.2 0.2,-0.4 3.5,-7 3.6,-7.3 0.3,0.3 4.1,5.1 4.1,5.1 0.8,1 1.8,1.9 2.8,2.7 z"
   id="path68" />
	<path
   class="st1"
   d="m 329.8,171.8 -20.6,-2.9 v 0.1 l -0.5,3.3 v 0 c 0,0 15.3,2.2 15.8,2.2 l -17.7,10.7 v 0 l -0.5,3.6 20.6,3 0.5,-3.4 v 0 l -15.8,-2.3 c 0.4,-0.3 17.6,-10.6 17.6,-10.6 z"
   id="path70" />
	<path
   class="st1"
   d="m 307,113.4 c -2.4,1.2 -4.2,3.3 -5.1,5.8 -0.9,3.2 -0.6,6.6 1,9.5 3.2,6.4 9.1,8.7 14.9,5.8 5.8,-2.9 7.6,-9 4.4,-15.4 -3.2,-6.4 -9.2,-8.6 -15.2,-5.7 z m 12.9,6.9 c 1,2 1.3,4.3 0.6,6.4 -0.8,2.1 -2.4,3.7 -4.4,4.6 -1.9,1.1 -4.1,1.3 -6.2,0.7 -2.1,-0.8 -3.8,-2.4 -4.7,-4.4 -1.1,-2 -1.3,-4.3 -0.6,-6.4 0.7,-2 2.2,-3.6 4.1,-4.4 1.8,-1 3.9,-1.4 5.9,-1 2.3,0.6 4.2,2.2 5.3,4.5 z"
   id="path72" />
	<path
   class="st1"
   d="m 303.8,106.2 2.5,-1.2 v 0 c 0,0 -5.3,-10.4 -5.4,-10.6 0.2,-0.1 5.2,-2.7 5.5,-2.8 l 6.2,12.3 v 0 l 2.5,-1.2 -7.8,-15.5 -0.2,0.1 -18.5,9.3 1.7,3.2 v 0 c 0,0 8.1,-4.1 8.3,-4.2 z"
   id="path74" />
	<polygon
   class="st1"
   points="287.2,256.3 282.8,252.5 287,247.8 291.3,251.4 "
   id="polygon76" />
	<path
   class="st1"
   d="m 214.9,85.7 6.5,-0.4 C 217.5,83.3 193.3,69 193.3,69 l -2.1,3.1 c 0,0 20.5,12 23.4,13.8 0.1,-0.2 0.2,-0.2 0.3,-0.2 z"
   id="path78" />
	<path
   class="st1"
   d="m 269.6,152.6 c 1.1,0.6 5.7,5.1 5.7,5.1 l 2,-2.9 c 0,0 -6,-5.7 -7.1,-6.8 0,0 0,-0.1 0,-0.1 l -0.6,4.5"
   id="path80" />
	<path
   class="st1"
   d="m 265,148 c 0,0 1,-1.2 2.1,-2.9 -2.9,-2.6 -17.6,-16.1 -18.4,-17.1 l 0.2,4.8 z"
   id="path82" />
	<polygon
   class="st1"
   points="248.7,101.9 248.7,106 279.8,124.7 280.7,120.9 "
   id="polygon84" />
	<path
   class="st1"
   d="m 91.6,167 c 0,-1.8 0,-2.9 -0.1,-2.9 -0.2,0.3 -0.4,-4.4 -0.1,-6 -1.7,2.6 -30.4,36.5 -30.4,36.5 l 1.4,3.6 c 0,0 28.9,-33.4 29.1,-33.8 0.1,0.9 0.1,1.7 0.1,2.6 z"
   id="path86" />
	<path
   class="st1"
   d="m 141.2,252.5 -4,21.1 3.7,0.9 4.1,-19.5 c -0.1,-0.1 -0.3,-0.2 -0.4,-0.3 l -3.4,-2.5 z"
   id="path88" />
	<path
   class="st1"
   d="m 273.7,200.5 c 2.1,1.4 6.5,6.4 6.5,6.4 l 1.7,-3.2 c 0,0 -7.1,-7.1 -7.5,-8.2 0,0 0,-0.1 -0.1,-0.1 l -0.6,5 z"
   id="path90" />
	<path
   class="st1"
   d="m 260.1,222.9 c 0.9,0.5 5.3,10.8 5.3,10.8 l 2.9,-2.3 c 0,0 -4.6,-9.6 -5.2,-10.7"
   id="path92" />
	<path
   class="st1"
   d="m 228,234.1 c 0.3,0.5 9.1,25.3 9.1,25.3 l 3.3,-2.2 c 0,0 -8.2,-22 -7.7,-22.9 V 234 l -4.7,-0.2 z"
   id="path94" />
	<path
   class="st1"
   d="m 207.6,260.2 c 1.2,5.7 2.9,12.7 2.9,12.7 l 3.8,-1.5 c 0,0 -2.8,-12.6 -3.3,-13.7 z"
   id="path96" />
	<path
   class="st1"
   d="m 172,266.3 c 0,2.6 -0.1,12.3 -0.1,13 1.5,0 3.7,0.3 4.7,0 0.1,-2.6 -0.5,-12.6 -0.5,-12.7 z"
   id="path98" />
	<path
   class="st1"
   d="m 151.2,83.1 c 1,-0.8 4.4,-3.8 4.4,-3.8 l -2.6,-2 c 0,0 -5,4.7 -6.5,5.8 0.9,0 3.3,0 4.4,0 z"
   id="path100" />
	<path
   class="st1"
   d="m 195.6,78.9 c -0.1,0.1 -2.3,2.5 -2.3,2.5 0,0 3.6,3.5 4.6,4.5 0.1,0 0.2,0 0.3,-0.1 l 4.8,-0.3 c -1.3,-1 -6.5,-5.8 -7.4,-6.6 z"
   id="path102" />
	<path
   class="st1"
   d="m 128.6,85 0.5,-0.1 c 3.7,-2.2 27,-15.9 27,-15.9 l -2.6,-2.3 c 0,0 -27,15.7 -31.4,18.2 z"
   id="path104" />
	<path
   class="st1"
   d="m 91.5,106 v -4 l -24.4,14.5 -0.3,4 24.8,-14.2 z"
   id="path106" />
	<path
   class="st1"
   d="m 91.5,133.3 c -0.4,0.4 -0.2,-3.9 0,-5.4 -0.9,1.6 -34.5,28.5 -34.5,28.5 l 0.3,5.1 c 0,0 33.7,-27.5 34.3,-28 z"
   id="path108" />
	<path
   class="st1"
   d="m 132.4,95.7 c 0,0 -13.7,0.4 -15.8,0.8 -0.1,0 -0.6,18.9 -0.6,18.9 l 16.8,-0.5 z m -13.8,17 0.4,-13.6 10.4,-0.4 1,13.8 z"
   id="path110" />
	<path
   class="st1"
   d="m 285.5,157.1 c -10.2,3.2 -14.4,1.4 -16.4,1.2 0.1,-2 0.2,-4 0.5,-5.9 l 0.6,-4.6 c -0.2,-0.8 0.2,-8.3 0.2,-8.4 -1.5,3.1 -3.3,6 -5.4,8.7 -4.1,5.1 -15.2,12 -16.1,11.2 v -26.4 l -0.2,-5.1 V 85.5 c -1.3,0 -5.8,0.1 -7.2,0.3 -0.2,-0.6 -0.3,-1.2 -0.2,-1.8 -1.6,0 -6.4,1 -7.2,1.5 l 0.1,-2.2 c -0.6,-0.2 -10.8,2.2 -12.2,1.8 l -7,0.5 c -3.9,0.3 -7.8,0.3 -11.7,-0.1 l -5,0.3 c -11.7,0.9 -23.2,6.7 -24,7.8 -6.7,-8 -21.8,-10.5 -23.2,-10.4 -1.4,0.1 -4.8,0 -4.8,0 -9.2,1.3 -17.5,1.8 -17.6,1.8 l -6.9,-0.2 C 121,85.2 105.5,83 105,83 c -0.1,1.4 0.1,1.5 -0.1,2.6 -2.2,-0.1 -4.5,-0.4 -6.7,-0.8 v 2 C 96.6,87 91.8,85.9 91.7,86 c 0,3.4 0,15.7 0,15.7 v 4.2 c 0,0 0.1,21.5 0,21.6 -0.2,1.1 -0.4,6.1 0,5.7 v 24.4 c -0.4,1.1 -0.2,6.8 0,6.4 0.2,0 0.1,30.4 0,33.2 -10,5.3 -13.6,24.2 -7.2,30.9 10.6,11.1 17.3,11.8 28.5,35.2 1.1,-2.9 2.9,-12.3 3.6,-13.7 1.4,0.2 10.7,11.1 11,11.1 3.3,-13.5 -9.7,-26.5 -9.8,-28 2,-0.1 6.3,-0.3 8.6,-0.3 3.3,3.7 10.4,14.3 15,19.7 l 3.4,2.5 c 8.1,6 17.5,9.8 27.4,11.3 l 4,0.4 c 13.6,-0.1 19.3,-1 31.5,-6.5 l 3.4,-2.6 c 12.2,-9.3 -0.3,-23.7 -0.2,-24 1.3,-0.2 16.9,0.1 17.2,0.4 l 4.7,0.2 c 1.2,-0.7 16,-0.6 16,-0.6 v -7.3 c 2.5,0 5.7,-0.5 11.4,-3.5 l 3,-2.2 c 10.1,-9.6 9.6,-17.5 10.6,-20 l 0.7,-5.1 c -1.4,-5 -3.2,-17.8 -11.1,-19.9 2.2,-0.5 15.1,-9.5 22.1,-18.1 z m -44,-68.8 c 0.4,0 3.3,-0.3 3.4,-0.2 0.2,2 -0.2,63.8 0.1,71.4 -0.2,0.2 -3.4,-2.2 -3.7,-2.3 -0.3,-5.1 -0.1,-68.5 0.2,-68.9 z m 4,86.2 c -0.8,0.8 -4,1.4 -4.2,1.4 0,-1.1 -0.1,-2.4 -0.1,-3.5 1.6,0.4 3,1.1 4.3,2.1 z M 233.9,87.9 c 0.5,0 3.1,-0.7 3.2,-0.7 0.3,1.5 0.2,67.5 0.2,68.1 -1.1,-0.3 -2.3,-0.4 -3.4,-0.2 0,-5.5 0,-67.1 0,-67.2 z m 6.1,71.9 c 2.9,3.7 4,8.5 4.9,10.2 -9.9,-4.1 -21.8,3.1 -22.4,4 -1.2,-1.2 -2.9,-5.7 -1.5,-8.1 1.5,-2.4 9.3,-9.7 19,-6.1 z m -2.3,16.9 c -1.4,0.3 -2.8,0.3 -4.2,0.2 0,-0.6 -0.1,-3.1 -0.1,-4 1.3,-0.4 2.6,-0.6 4,-0.5 0.2,1.4 0.3,2.8 0.3,4.3 z m -7.9,-2.9 c -0.2,1 -0.3,1.9 -0.4,2.9 -0.8,0 -0.8,0.6 -3.1,-0.6 0.8,-1.2 2.1,-2 3.5,-2.3 z M 176.6,96.3 v 0 c 0,-0.1 0,-0.2 0,-0.3 13.5,-10.9 44.8,-4.2 53.5,-9.1 0.4,2.1 0.2,67.4 -0.2,68.8 v 0 c 0,0.1 0,0.2 0,0.3 -0.4,0.8 -5.9,1.6 -11,7.7 -1.4,1.7 -2.4,3.7 -2.9,5.8 -1.6,6.3 -0.3,13.7 0.3,16.7 0.1,0.8 0.3,2.1 0.3,2.1 2.2,9.4 12.1,8.7 13.5,9 0.1,0.5 0,2.9 0,4.4 H 230 c 0,0.1 0,0.2 0,0.3 -13.3,-2.1 -24.5,-10.4 -36.4,-0.8 -2.2,2.3 -3.8,5.1 -4.7,8.2 -0.8,3 -0.9,6.1 -0.4,9.1 h -0.1 c 0,0.1 0,0.2 0,0.3 -2.9,0.6 -10.6,2.1 -10.8,2.1 -0.8,-4.3 -1.6,-124.2 -1,-124.6 z M 205.8,230 c -0.1,0 -15.5,-8.3 -15.1,-14.2 0.1,-3.4 14.6,1.5 17.6,2.7 0,0 -4.9,6.3 -2.5,11.5 z m -38.5,-1.7 c 0,0 -0.7,1.5 -0.7,1.6 -1.5,0.4 -9.5,-0.2 -10.2,-0.4 -0.7,-0.2 -2.7,-2.9 -3.1,-3.3 0.8,-0.8 10.3,0.8 14,2.1 z m -16.2,-5.5 c -0.5,-0.5 -2.9,-2.7 -2.7,-2.9 7.1,-1.7 21.9,3.4 22.7,3.9 -1.5,0.7 -1.9,2 -2.3,2.3 -1.4,-0.1 -8.3,-3.3 -17.7,-3.3 z m 17,10.6 c 2.4,2.6 11.5,2.6 17.5,0 1.1,-0.4 16.5,-0.8 16.5,-0.8 -13.7,13.7 -33.5,8.7 -42.4,-0.2 -0.1,0 7,1 8.4,1 z m 16.2,-5.3 c 3.3,-0.6 8.4,-1.3 10.8,-1.2 0.4,0.2 4.9,2.8 4.8,2.9 -3.4,0 -11.7,0.3 -14.8,0.8 -0.2,-0.2 -0.1,-1.8 -0.8,-2.5 z m 7.2,-4.2 c -1.4,0.4 -7.9,1.1 -8.9,1.6 -0.8,-0.7 -2.6,-2 -2.7,-2 2.2,-1.1 8,-2.2 9.5,-2.5 0.8,0.9 1.5,1.9 2.1,2.9 z m -16,1.5 c 4.9,0 6.8,4.6 6.5,4.8 -2.7,2.1 -8.4,2.7 -11.9,0.1 0.5,-2.7 2.7,-4.7 5.4,-4.9 z M 108.7,87.6 c 26,4.3 46,-8.4 63.7,9.3 1,1.3 1.1,123.9 0.8,124.4 -11.7,-3.7 -20.4,-4.8 -27.6,-3.8 -4.1,-6.2 -20.6,-22.9 -37.1,-23.1 0,0.1 0.1,-106.5 0.2,-106.8 z m -6.3,0.9 c 0.8,0.2 1.6,0.4 2.4,0.3 v 105.1 c -0.8,0 -1.7,0.1 -2.5,0.3 0.1,-1.1 0,-105.5 0.1,-105.7 z m -7.5,1 c 1,0.6 2.6,0.4 3.1,0.5 0.4,1.6 0.7,104.3 0.5,104.7 -1.2,0.3 -2.5,0.7 -3.6,1.3 z m -3.4,141.8 c -10.2,-6.4 -0.6,-9.4 0,-9.3 z m 33.1,22.9 c -3.2,-3.1 -6.5,-6 -10,-8.7 -0.1,0 -2.7,11.6 -2.7,11.6 -2.4,-11.2 -16.8,-22.5 -16.7,-22.7 2.7,-0.4 10.6,-0.6 17.3,-0.6 1.4,-0.1 11,10.6 12.1,20.4 z M 95,230 c 0,-2.4 -0.1,-7.1 -0.1,-8.9 1.1,-0.4 2.3,-0.6 3.5,-0.6 0.4,0.8 0,7 0,7.1 2.5,0.3 19.6,-0.6 20.7,-0.2 0.6,0.2 3.5,2.1 3.4,2.4 -3.5,-0.1 -22.4,0.7 -27.5,0.2 z m 7.3,-9.8 c 3.5,0 13.3,4.2 13.3,4.3 -1.2,0 -12.7,0.4 -13.2,0 -0.2,-1.4 -0.2,-2.9 -0.1,-4.3 z m 93.8,40.8 c -32.3,8.2 -51.9,-7.7 -63.2,-24.8 -9.8,-13.5 -31.5,-25.8 -48.1,-14.2 -3.5,-33.2 35.9,-30.1 55.6,-6.3 0.3,0.2 13.2,16.9 18.9,21 22.1,15.6 41,3.9 46.9,-2.8 2.7,1.8 20.8,17.4 -10.1,27.1 z m 13,-30.8 c -0.9,-0.9 -1.4,-2.2 -1.1,-3.4 0.4,0 36.2,0.8 36.9,1.3 0.1,0.9 0.2,1.9 0.1,2.8 0,-0.1 -35.7,-0.7 -35.9,-0.7 z m -0.5,-6 c 0,-0.4 0.3,-2.7 1.6,-3.4 2.3,0.5 15.5,3.3 15.6,3.3 -0.9,0.2 -14.7,0.1 -17.2,0.1 z m -18.1,-12.4 c 9.8,-34.8 63.6,21.9 72.1,-22.4 2.7,0.1 9,5 8.5,7.9 -9.7,48.9 -56.7,14.9 -80.6,14.5 z M 234,203 v -5.8 c 1.1,-0.2 2.3,-0.6 3.3,-1.1 0.1,0 -0.1,5.6 -0.1,7.6 -1.1,-0.1 -2.2,-0.3 -3.2,-0.7 z m 7.2,-8 c 1.2,-0.6 3.5,-2.1 3.8,-2 0,2.2 0,10.2 0,11.4 -1.2,0.2 -2.4,0.2 -3.6,0.1 0.1,-1.7 -0.1,-8.6 -0.2,-9.5 z m 7.7,8.6 c 0,-3.5 0,-10.9 0.2,-12.8 1.4,-0.6 6.8,-2.6 10.3,-2.2 0.9,7.9 -6.9,15.3 -10.5,15 z m 21.2,-12.9 c -10.9,-10.8 -26.1,-1.2 -29.4,0.5 -9.4,4.8 -18.2,3.5 -20.9,-2.2 -1.1,-2.9 -2.2,-10.7 -1.5,-14.3 14,13.6 27,-1 40.1,1 3.3,1.6 7.8,0.2 11.7,15 z m -19.3,-17.8 c -2,-1.6 -3.9,-6.4 -4.5,-9.2 3.6,0.4 17.5,-9.3 20,-11.6 -0.2,3 -0.6,5.9 -1.3,8.8 3.7,0.6 7.4,0.8 11.1,0.8 0.1,0 -10.3,13.6 -25.3,11.2 z"
   id="path112" />
	<polygon
   class="st1"
   points="117.2,214 116.6,215.9 109.2,213.3 112.9,202.8 115.1,203.6 112.1,212.2 "
   id="polygon114" />
	<polygon
   class="st1"
   points="125.8,219.2 124.8,220.8 117.7,216.2 123.8,207 130.7,211.4 129.6,213.1 124.7,209.8 123.4,211.8 127.9,214.7 126.8,216.4 122.3,213.4 120.7,215.8 "
   id="polygon116" />
	<polygon
   class="st1"
   points="135.3,218 128.8,224.3 127.1,222.7 133.7,216.3 131.3,213.9 132.7,212.5 139,219 137.6,220.4 "
   id="polygon118" />
	<polygon
   class="st1"
   points="145.6,230.5 139,236.9 137.4,235.2 143.9,228.9 141.6,226.5 143,225.1 149.3,231.5 147.9,232.9 "
   id="polygon120" />
	<polygon
   class="st1"
   points="154.5,237.2 156.2,238.8 148.9,247 147.1,245.4 150.5,241.8 147.2,238.9 143.9,242.6 142.2,241 149.6,232.8 151.3,234.3 148.5,237.5 151.7,240.3 "
   id="polygon122" />
	<polygon
   class="st1"
   points="159.9,251.8 158.9,253.6 151.5,249.6 156.7,239.8 163.9,243.7 163,245.4 157.8,242.6 156.7,244.7 161.5,247.2 160.6,249 155.8,246.4 154.4,249 "
   id="polygon124" />
	<polygon
   class="st1"
   points="181.5,256.6 181.4,258.6 173,258.2 173.5,247.1 181.7,247.5 181.6,249.5 175.7,249.2 175.6,251.5 181,251.8 180.9,253.7 175.5,253.4 175.3,256.3 "
   id="polygon126" />
	<polygon
   class="st1"
   points="208.9,247.8 210,249.4 202.9,254.1 196.8,244.9 203.6,240.3 204.7,241.9 199.8,245.2 201.1,247.2 205.6,244.2 206.6,245.8 202.2,248.8 203.8,251.2 "
   id="polygon128" />
	<path
   class="st1"
   d="m 191.6,253 2.9,-0.8 v 0 c 0.7,-0.3 1.6,0 1.9,0.7 0,0.1 0.1,0.1 0.1,0.2 0.3,1 -0.2,1.7 -1.3,2 v 0 l -2.7,0.8 z m -0.8,5.3 4.5,-1.2 v 0 c 2.2,-0.6 2.6,-1.1 3.1,-1.9 0.5,-0.7 0.6,-1.6 0.3,-2.5 -0.2,-1.2 -1.2,-2.1 -2.3,-2.2 0.8,-0.6 1,-1.6 0.7,-2.5 -0.3,-1.1 -1.4,-2.6 -4,-1.9 v 0 l -5.2,1.4 z m -0.3,-9.4 2.6,-0.7 v 0 c 1,-0.3 1.7,-0.2 2,0.7 0.3,0.9 -0.4,1.4 -1.2,1.6 v 0 l -2.6,0.7 z"
   id="path130" />
	<path
   class="st1"
   d="m 165.4,249.5 1,-2.8 2.7,0.9 v 0 c 0.7,0.1 1.2,0.8 1.1,1.6 0,0.1 -0.1,0.2 -0.1,0.3 -0.3,1.1 -1,1.2 -2.1,0.9 z m -4.2,5.1 2.1,0.7 1.4,-4.1 2.3,0.8 v 0 c 1.6,0.6 1.6,1.1 1.1,2.6 -0.3,0.7 -0.5,1.4 -0.5,2.2 v 0 l 2.4,0.8 0.1,-0.3 v 0 c -0.4,-0.3 -0.3,-0.7 0.2,-2.2 0.6,-2 0.4,-2.4 -0.4,-3.1 1.2,0 2.2,-0.9 2.4,-2 0.5,-1.6 -0.3,-3.4 -2,-3.9 -0.1,0 -0.2,-0.1 -0.3,-0.1 v 0 l -5.3,-1.8 z"
   id="path132" />
	<polygon
   class="st1"
   points="214,212.7 213.5,214.7 205.9,212.8 208.5,202 210.8,202.6 208.6,211.4 "
   id="polygon134" />
	<polygon
   class="st1"
   points="219.9,205.1 217.3,215.9 215.1,215.4 217.7,204.6 "
   id="polygon136" />
	<path
   class="st1"
   d="m 225.7,212.1 4.5,1 -1.4,5.8 -1.5,-0.4 0.1,-1.4 v 0 c -1,0.9 -2.5,1.2 -3.8,0.8 -2.6,-0.6 -4.5,-3 -3.6,-6.8 0.7,-3 3,-5.3 6.6,-4.5 3.3,0.8 4.1,3.3 3.9,4.8 v 0 l -2.2,-0.5 v 0 c -0.1,-1.1 -0.9,-2.1 -2,-2.4 -1.6,-0.4 -3.4,0.4 -4,3.1 -0.7,2.9 0.7,4.1 2.2,4.5 1.3,0.3 2.7,-0.5 3.2,-1.8 v 0 l -2.5,-0.6 z"
   id="path138" />
	<polygon
   class="st1"
   points="239.6,209.1 241.9,209.4 240.6,220.4 238.3,220.1 238.9,215.2 234.6,214.7 234,219.6 231.6,219.3 233,208.3 235.3,208.6 234.8,212.7 239.1,213.3 "
   id="polygon140" />
	<polygon
   class="st1"
   points="248.7,212 247.6,221.1 245.3,220.8 246.4,211.7 243.1,211.3 243.3,209.4 252.3,210.5 252.1,212.5 "
   id="polygon142" />
	<path
   class="st1"
   d="m 125.4,106.9 -0.6,-2.3 v 0 c -0.1,-0.6 -0.3,-1.4 -0.5,-2 v 0 c -0.1,0.6 -0.2,1.4 -0.4,2 v 0 l -0.6,2.3 z m -2.4,1.9 -0.6,2.8 h -2.2 l 2.8,-10.8 h 2.7 l 2.9,10.7 h -2.2 l -0.7,-2.8 z"
   id="path144" />
	<path
   class="st1"
   d="m 104.8,219.3 0.2,3.7 h 10.8 c -2.4,-1.3 -4.8,-2.5 -7.3,-3.4 z"
   id="path146" />
	<path
   class="st1"
   d="m 213.8,96.5 c 3.9,-0.5 7.7,-1.4 11.4,-2.7 v 0 2.4 0 c -3.6,1.2 -7.4,2.1 -11.2,2.5 z"
   id="path148" />
	<path
   class="st1"
   d="m 211.5,98.9 c -1.7,0.2 -3.4,0.3 -5.1,0.4 v 0 -2.2 0 c 1.5,-0.1 3.4,-0.2 5,-0.4 z"
   id="path150" />
	<path
   class="st1"
   d="m 204.6,99.5 -6.4,0.3 v 0 -2.1 0 c 2,-0.1 4.3,-0.2 6.4,-0.4 z"
   id="path152" />
	<path
   class="st1"
   d="m 196,99.9 c -1.8,0.1 -3.5,0.2 -5.1,0.4 v 0 l -0.1,-2.2 v 0 c 1.7,-0.2 3.4,-0.3 5.2,-0.4 z"
   id="path154" />
	<path
   class="st1"
   d="m 188.5,100.5 c -2.9,0.4 -5.7,1.2 -8.4,2.5 v 0 -2.1 0 c 2.6,-1.3 5.5,-2.1 8.4,-2.5 z"
   id="path156" />
	<path
   class="st1"
   d="m 210,101.5 c 5.2,-0.5 10.5,-1.4 15.6,-2.4 v 0 l 0.1,2.5 v 0 c -5.2,1.2 -10.5,2 -15.8,2.4 z"
   id="path158" />
	<path
   class="st1"
   d="m 193.4,105.1 c -4.1,0.2 -10.8,1 -13.3,2 v 0 -2.1 0 c 3.1,-1.4 8.1,-1.8 13.6,-2.2 z"
   id="path160" />
	<path
   class="st1"
   d="m 207.3,104.2 c -3.7,0.3 -7.8,0.6 -11.2,0.8 v 0 l 0.2,-2.5 v 0 c 3,-0.2 7.7,-0.5 11.2,-0.8 z"
   id="path162" />
	<path
   class="st1"
   d="m 220.1,105.2 c 1.8,-0.3 3.6,-0.6 5.5,-1.1 v 0 l 0.1,2.5 v 0 c -1.7,0.4 -3.6,0.8 -5.6,1.1 z"
   id="path164" />
	<path
   class="st1"
   d="m 184.6,111.1 c -1.5,0.2 -3,0.6 -4.5,1.1 v 0 -2.1 0 c 1.5,-0.6 3.1,-1.1 4.7,-1.3 z"
   id="path166" />
	<path
   class="st1"
   d="m 193.7,110.2 c -2.7,0.2 -4.9,0.4 -7,0.7 v 0 l 0.1,-2.5 v 0 c 2,-0.2 4.4,-0.4 6.9,-0.6 z"
   id="path168" />
	<path
   class="st1"
   d="m 209.1,109 c -4.5,0.4 -8.7,0.8 -13,1.1 v 0 l 0.1,-2.5 v 0 c 3.8,-0.2 8.1,-0.4 12.8,-0.9 z"
   id="path170" />
	<path
   class="st1"
   d="m 217.9,108 c -2.1,0.3 -4.3,0.6 -6.6,0.8 v 0 l -0.1,-2.3 v 0 c 1.9,-0.2 4.4,-0.5 6.5,-0.8 z"
   id="path172" />
	<path
   class="st1"
   d="m 220.8,110.8 c 1.6,-0.2 3.1,-0.6 4.8,-0.9 v 0 l 0.1,2.4 v 0 c -1.4,0.4 -3.2,0.7 -4.9,0.9 z"
   id="path174" />
	<path
   class="st1"
   d="m 185.2,116.7 c -1.7,0.2 -3.4,0.6 -5.1,1.2 v 0 -2 0 c 1.7,-0.7 3.4,-1.2 5.2,-1.5 z"
   id="path176" />
	<path
   class="st1"
   d="m 198.7,115.5 c -4.3,0.3 -7.8,0.6 -11,1 v 0 l 0.1,-2.5 v 0 c 3.1,-0.3 6.8,-0.6 11.1,-0.8 z"
   id="path178" />
	<path
   class="st1"
   d="m 208.2,114.8 -7.3,0.6 v 0 -2.3 0 c 2.3,-0.1 4.7,-0.3 7.2,-0.6 z"
   id="path180" />
	<path
   class="st1"
   d="m 218.8,113.5 c -2.8,0.4 -5.5,0.8 -8.6,1 v 0 -2.3 0 c 2.6,-0.3 5.6,-0.7 8.5,-1.1 z"
   id="path182" />
	<path
   class="st1"
   d="m 222.3,115.8 c 1,-0.2 2.1,-0.4 3.2,-0.7 v 0 l 0.1,2.5 v 0 c -0.9,0.2 -2.4,0.4 -3.3,0.6 z"
   id="path184" />
	<path
   class="st1"
   d="m 188.1,121.7 c -2.7,0.2 -5.4,0.7 -8,1.5 v 0 -2.1 0 c 2.6,-1 5.4,-1.6 8.3,-1.8 z"
   id="path186" />
	<path
   class="st1"
   d="m 200.5,120.7 c -3.6,0.2 -6.8,0.5 -9.8,0.8 v 0 l 0.1,-2.5 v 0 c 2.9,-0.2 6.1,-0.4 9.7,-0.6 z"
   id="path188" />
	<path
   class="st1"
   d="m 214.2,119.4 c -3.7,0.4 -7.5,0.8 -11.5,1.1 v 0 l 0.1,-2.3 v 0 c 3.6,-0.3 7.4,-0.6 11.4,-1.2 z"
   id="path190" />
	<path
   class="st1"
   d="m 220.5,118.5 c -1.4,0.3 -2.8,0.5 -4.3,0.7 v 0 l 0.1,-2.4 v 0 c 1.4,-0.2 3,-0.4 4.2,-0.7 z"
   id="path192" />
	<path
   class="st1"
   d="m 212.8,122.5 c 3.9,-0.5 8.4,-1.1 12.8,-2.1 v 0 l 0.1,2.4 v 0 c -4.3,1 -8.6,1.6 -12.9,2 z"
   id="path194" />
	<path
   class="st1"
   d="m 194.8,126.3 c -7.1,0 -12.6,1.1 -14.7,2 v 0 -2 0 c 3.4,-1.6 8.5,-1.9 15,-2.3 z"
   id="path196" />
	<path
   class="st1"
   d="m 210.4,125.1 c -4.3,0.4 -8.9,0.8 -13,1.1 v 0 l 0.2,-2.4 v 0 c 3.7,-0.2 8.3,-0.5 12.9,-1 z"
   id="path198" />
	<path
   class="st1"
   d="m 218.6,127.1 c 2.2,-0.3 4.6,-0.8 7,-1.3 v 0 l 0.1,2.5 v 0 c -2.1,0.5 -4.4,0.9 -6.9,1.3 z"
   id="path200" />
	<path
   class="st1"
   d="m 189.8,132.2 c -4.8,0.4 -8.1,1 -9.7,1.6 v 0 -2 0 c 2.4,-1.1 5.9,-1.7 9.9,-2 z"
   id="path202" />
	<path
   class="st1"
   d="m 209.9,130.6 c -6.3,0.6 -12.3,1 -17.8,1.5 v 0 l 0.3,-2.5 v 0 c 5,-0.4 10.5,-0.6 17.4,-1.4 z"
   id="path204" />
	<path
   class="st1"
   d="m 216.6,129.9 c -1.4,0.1 -3.1,0.3 -4.6,0.4 v 0 -2.3 0 c 1.5,-0.2 3,-0.4 4.5,-0.6 z"
   id="path206" />
	<path
   class="st1"
   d="m 220.9,132 c 1.5,-0.3 3.1,-0.6 4.7,-0.9 v 0 l 0.1,2.5 v 0 c -1.4,0.3 -3.1,0.6 -4.7,0.9 z"
   id="path208" />
	<path
   class="st1"
   d="m 193.7,137.2 c -6.5,0.5 -11.7,1 -13.6,2 v 0 -2.1 0 c 3.2,-1.5 7.8,-1.9 13.6,-2.3 z"
   id="path210" />
	<path
   class="st1"
   d="m 212.2,135.6 c -5.3,0.6 -10.5,1 -15.7,1.4 v 0 l 0.1,-2.4 v 0 c 4.5,-0.3 9.9,-0.6 15.7,-1.3 z"
   id="path212" />
	<path
   class="st1"
   d="m 218.8,134.8 c -1.5,0.2 -2.6,0.4 -4.3,0.6 v 0 -2.3 0 c 1.5,-0.2 2.7,-0.4 4.2,-0.7 z"
   id="path214" />
	<path
   class="st1"
   d="m 211.6,138.1 c 4.3,-0.5 8.9,-1.2 13.9,-2.3 v 0 l 0.1,2.5 v 0 c -4.6,1 -9.2,1.7 -13.9,2.2 z"
   id="path216" />
	<path
   class="st1"
   d="m 199.3,141.5 c -9.1,0.4 -16.7,1.2 -19.1,2.3 v 0 -2 0 c 4.1,-2 10.6,-2.1 19.2,-2.6 z"
   id="path218" />
	<path
   class="st1"
   d="m 209.3,140.6 c -2.5,0.2 -5.1,0.5 -7.6,0.7 v 0 -2.3 0 c 2.4,-0.2 4.9,-0.4 7.6,-0.6 z"
   id="path220" />
	<path
   class="st1"
   d="m 212.4,143.3 c 4.2,-0.5 8.4,-1.2 13.2,-2.2 v 0 l 0.1,2.5 v 0 c -4.4,1 -8.9,1.7 -13.5,2.1 z"
   id="path222" />
	<path
   class="st1"
   d="m 191.2,147.4 c -5.3,0.5 -9.4,1 -11,1.7 v 0 -2.1 0 c 2.7,-1.2 6.6,-1.8 11.2,-2.1 z"
   id="path224" />
	<path
   class="st1"
   d="m 209.7,145.9 c -5.6,0.5 -11.3,0.9 -16.2,1.3 v 0 l 0.2,-2.4 v 0 c 5,-0.4 9.6,-0.6 16.1,-1.3 z"
   id="path226" />
	<path
   class="st1"
   d="m 208,148.7 c 5.9,-0.5 11.8,-1.4 17.6,-2.7 v 0 l 0.1,2.5 v 0 c -5.8,1.2 -11.7,2.1 -17.6,2.5 v -2.3 z"
   id="path228" />
	<path
   class="st1"
   d="m 190.1,152.3 c -5,0.5 -8.4,1 -9.9,1.6 v 0 -2.1 0 c 2.5,-1.1 5.9,-1.7 10.1,-2 z"
   id="path230" />
	<path
   class="st1"
   d="m 192.5,149.6 c 1.7,-0.1 3.2,-0.2 5.1,-0.3 v 0 l -0.1,2.3 v 0 c -1.9,0.1 -3.4,0.3 -5.1,0.4 z"
   id="path232" />
	<path
   class="st1"
   d="m 205.4,151.2 -5.6,0.4 v 0 l 0.2,-2.3 v 0 c 1.8,-0.1 3.7,-0.2 5.6,-0.4 z"
   id="path234" />
	<path
   class="st1"
   d="m 213.8,152.7 c 3.8,-0.5 7.4,-1.1 11.8,-2.1 v 0 l 0.1,2.5 v 0 c -3.9,0.9 -7.9,1.5 -11.9,1.9 z"
   id="path236" />
	<path
   class="st1"
   d="m 195.2,156.6 c -7.1,0.6 -13,1.1 -15.1,2 v 0 -2 0 c 3.5,-1.6 8.6,-2 15.2,-2.4 z"
   id="path238" />
	<path
   class="st1"
   d="m 211.3,155.3 c -4.6,0.4 -9.2,0.8 -13.6,1.1 v 0 l 0.1,-2.4 v 0 c 4.2,-0.3 8.2,-0.6 13.6,-1.2 z"
   id="path240" />
	<path
   class="st1"
   d="m 210.8,158.2 c 4.5,-0.5 9.5,-1.3 12.9,-2 v 0 l 0.1,2.5 v 0 c -4.2,0.9 -8.5,1.6 -12.8,1.9 z"
   id="path242" />
	<path
   class="st1"
   d="m 198.9,161.5 c -8.8,0.7 -16.4,1.2 -18.8,2.3 v 0 -2 0 c 4.1,-1.9 10.6,-2.1 19,-2.6 z"
   id="path244" />
	<path
   class="st1"
   d="m 208.5,160.7 -7,0.6 v 0 l 0.2,-2.2 v 0 c 2.4,-0.2 4.1,-0.3 6.8,-0.6 z"
   id="path246" />
	<path
   class="st1"
   d="m 215.5,164.9 c -4.1,0.4 -8.7,0.9 -13.1,1.2 v 0 l 0.1,-2.3 v 0 c 4.3,-0.3 9.1,-0.7 14.2,-1.5 z"
   id="path248" />
	<path
   class="st1"
   d="m 189.1,167.2 c -4.3,0.4 -7.6,0.9 -9,1.5 v 0 -2 0 c 2.9,-1.1 5.9,-1.8 9,-1.9 z"
   id="path250" />
	<path
   class="st1"
   d="m 200,166.3 c -3,0.2 -6.2,0.4 -8.6,0.7 v 0 l 0.2,-2.5 v 0 c 2.5,-0.2 5.2,-0.3 8.5,-0.5 z"
   id="path252" />
	<path
   class="st1"
   d="m 194.7,171.7 c -6.9,0.5 -12.6,1.1 -14.6,2 v 0 -2 0 c 3.4,-1.6 8.3,-2 14.6,-2.4 z"
   id="path254" />
	<path
   class="st1"
   d="m 203.2,171.1 c -2,0.1 -4.4,0.3 -6.2,0.4 v 0 l 0.1,-2.3 v 0 c 1.9,-0.1 3.9,-0.3 6.3,-0.4 z"
   id="path256" />
	<path
   class="st1"
   d="m 213.5,170.2 c -2.6,0.3 -5.3,0.5 -8,0.8 v 0 l 0.1,-2.3 v 0 c 2.7,-0.2 5.4,-0.5 8.4,-0.9 z"
   id="path258" />
	<path
   class="st1"
   d="m 213.5,175.2 c -5.3,0.6 -11,1 -16.2,1.4 v 0 l -0.1,-2.4 v 0 c 4.7,-0.3 10.1,-0.6 16.2,-1.4 z"
   id="path260" />
	<path
   class="st1"
   d="m 195,176.7 c -7.1,0.6 -12.9,1.1 -14.9,2.1 v 0 -2.1 0 c 3.4,-1.6 8.3,-2 14.8,-2.3 z"
   id="path262" />
	<path
   class="st1"
   d="m 199.3,182.1 c -9.1,0.7 -16.7,1.2 -19.1,2.3 v 0 -2 0 c 4.1,-1.9 10.4,-2.1 19,-2.6 z"
   id="path264" />
	<path
   class="st1"
   d="m 206,181.6 c -1.7,0.1 -2.9,0.2 -4.6,0.4 v 0 -2.4 0 c 1.6,-0.1 2.8,-0.2 4.5,-0.3 z"
   id="path266" />
	<path
   class="st1"
   d="m 213.2,180.9 c -1.8,0.2 -3.6,0.3 -5.4,0.5 v 0 -2.3 0 c 1.8,-0.2 3.5,-0.4 5.4,-0.6 z"
   id="path268" />
	<path
   class="st1"
   d="m 193.8,187.8 c -6.7,0.5 -11.8,1 -13.7,1.9 v 0 -2.1 0 c 3.2,-1.5 7.7,-1.8 13.6,-2.2 z"
   id="path270" />
	<path
   class="st1"
   d="m 195.9,185.3 c 1.4,-0.1 2,-0.2 3.6,-0.3 v 0 l -0.1,2.4 v 0 c -1.4,0.1 -2.1,0.2 -3.5,0.3 z"
   id="path272" />
	<path
   class="st1"
   d="m 201.4,184.9 c 1.5,-0.1 3,-0.2 4.6,-0.3 v 0 2.3 0 c -1.6,0.1 -3.1,0.3 -4.6,0.4 z"
   id="path274" />
	<path
   class="st1"
   d="m 216.3,185.8 c -2.8,0.4 -5.5,0.7 -8.5,0.9 v 0 l 0.1,-2.3 v 0 c 2.7,-0.2 5.3,-0.6 8.2,-1 z"
   id="path276" />
	<path
   class="st1"
   d="m 190.1,192.8 c -4.8,0.4 -8.5,0.9 -10,1.6 v 0 -2.1 0 c 2.5,-1.2 5.9,-1.7 10,-2 z"
   id="path278" />
	<path
   class="st1"
   d="m 192.1,190.2 c 1.1,-0.1 2.7,-0.2 4.4,-0.3 v 0 2.4 0 c -1.7,0.1 -3.3,0.2 -4.4,0.4 z"
   id="path280" />
	<path
   class="st1"
   d="m 208.5,191.3 c -3.6,0.3 -6.4,0.6 -9.8,0.9 v 0 -2.4 0 c 3.2,-0.2 6.1,-0.4 9.8,-0.8 z"
   id="path282" />
	<path
   class="st1"
   d="m 215.9,190.6 c -1.8,0.2 -3.6,0.4 -5.4,0.6 v 0 l -0.1,-2.3 v 0 c 1.6,-0.2 3.2,-0.4 5,-0.6 z"
   id="path284" />
	<path
   class="st1"
   d="m 217.8,195.6 c -1.9,0.2 -5.5,0.6 -7.2,0.8 v 0 l -0.3,-2.3 v 0 c 1.8,-0.2 5,-0.4 6.9,-0.7 z"
   id="path286" />
	<path
   class="st1"
   d="m 196.7,197.4 c -7.8,0.6 -14.4,1.4 -16.6,2.4 v 0 -2.2 0 c 4.5,-1.5 8.7,-2.1 16.8,-2.5 z"
   id="path288" />
	<path
   class="st1"
   d="m 208.4,196.2 c -2.9,-0.5 -5.9,-0.3 -8.8,0.6 v 0 l 0.1,-1.9 v 0 c 2.6,-0.2 7.2,-0.5 8.6,-0.6 z"
   id="path290" />
	<path
   class="st1"
   d="m 218.1,198 c 2.8,-0.4 4.5,-0.8 7.5,-1.5 v 0 l 0.1,2.5 v 0 c -1,0.2 -1.4,0.3 -2.5,0.5 z"
   id="path292" />
	<path
   class="st1"
   d="m 190.5,202.8 c -4.9,0.5 -8.7,1 -10.4,1.7 v 0 -2.1 0 c 2.9,-1.3 7.1,-1.8 12,-2.2 z"
   id="path294" />
	<path
   class="st1"
   d="m 188.2,207.7 c -3.6,0.4 -6.7,0.9 -8.1,1.5 v 0 -2 0 c 2.9,-1.2 6,-1.9 9.2,-2 z"
   id="path296" />
	<path
   class="st1"
   d="m 186.9,213.2 c -2.3,0.1 -4.6,0.6 -6.7,1.3 v 0 -2.1 0 c 2.3,-0.8 4.6,-1.4 7.1,-1.7 z"
   id="path298" />
	<path
   class="st1"
   d="m 123.7,126.7 c -2.8,0.2 -5.7,0.5 -8.4,0.9 v 0 l -0.1,-2.2 v 0 c 2.8,-0.5 5.6,-0.9 8.4,-1 z"
   id="path300" />
	<path
   class="st1"
   d="m 162.4,128.7 c 2.3,0.9 4.6,1.9 6.7,3.1 v 0 2 0 c -2.1,-0.9 -4.4,-1.8 -6.5,-2.5 z"
   id="path302" />
	<path
   class="st1"
   d="m 160.5,130.5 c -5,-1.6 -10.1,-2.7 -15.3,-3.4 v 0 l -0.2,-2.2 v 0 c 5.2,0.6 10.3,1.7 15.2,3.2 z"
   id="path304" />
	<path
   class="st1"
   d="m 142.1,126.8 c -5.2,-0.5 -10.4,-0.6 -15.7,-0.3 v 0 -2.3 0 c 5.2,-0.2 10.4,-0.1 15.5,0.4 z"
   id="path306" />
	<path
   class="st1"
   d="m 123.2,131.7 c -2.6,0.2 -5.3,0.7 -7.9,1 v 0 l -0.1,-2.2 v 0 c 2.7,-0.5 5.4,-0.9 8.1,-1 z"
   id="path308" />
	<path
   class="st1"
   d="m 155.9,132 c 4.6,1 9.1,2.6 13.3,4.7 v 0 2.2 0 c -4.3,-1.9 -8.7,-3.4 -13.3,-4.5 z"
   id="path310" />
	<path
   class="st1"
   d="m 153.6,133.8 c -5.1,-1.2 -10.4,-1.9 -15.6,-2.1 v 0 -2.2 0 c 5.3,0.3 10.5,1 15.7,2.2 z"
   id="path312" />
	<path
   class="st1"
   d="m 135.5,131.5 c -3.2,-0.1 -6.8,0 -10,0.1 v 0 -2.3 0 c 3.1,-0.2 6.4,-0.2 10,0 z"
   id="path314" />
	<path
   class="st1"
   d="m 141.5,136.4 c -8.7,-0.7 -17.5,-0.4 -26.1,0.9 v 0 l -0.2,-2.2 v 0 c 6,-1.2 16,-1.7 26.4,-0.8 z"
   id="path316" />
	<path
   class="st1"
   d="m 158.9,137.4 c 3.5,0.9 7,2.2 10.3,3.9 v 0 2.2 0 c -3.3,-1.5 -6.7,-2.7 -10.1,-3.7 z"
   id="path318" />
	<path
   class="st1"
   d="m 156.5,139.1 c -4.1,-1.1 -8.3,-1.9 -12.5,-2.4 v 0 -2.2 0 c 4.2,0.5 8.4,1.2 12.6,2.2 z"
   id="path320" />
	<path
   class="st1"
   d="m 124.1,141.7 c -2.9,0.2 -5.9,0.5 -8.7,0.9 v 0 l -0.2,-2.2 v 0 c 2.9,-0.6 5.9,-0.9 8.9,-1.1 z"
   id="path322" />
	<path
   class="st1"
   d="m 156,142 c 4.6,1 9,2.6 13.1,4.7 v 0 2.2 0 c -4.3,-1.8 -8.6,-3.3 -13.1,-4.4 z"
   id="path324" />
	<path
   class="st1"
   d="m 153.4,143.6 c -4.5,-1 -9,-1.6 -13.6,-1.9 v 0 l 0.1,-2.2 v 0 c 4.5,0.3 9,1 13.4,1.9 z"
   id="path326" />
	<path
   class="st1"
   d="m 137.5,141.6 c -3.8,-0.2 -7.6,-0.2 -11.4,0 v 0 -2.3 0 c 3.8,-0.2 7.6,-0.1 11.4,0.1 z"
   id="path328" />
	<path
   class="st1"
   d="m 124.3,121 c -3.1,0.1 -6.1,0.6 -9,0.9 v 0 l -0.2,-2.1 v 0 c 3.1,-0.6 6.2,-1 9.3,-1.1 z"
   id="path330" />
	<path
   class="st1"
   d="m 161.1,122.6 c 2.8,0.8 5.5,1.9 8.1,3.2 v 0 2.2 0 c -2.6,-1.1 -5.3,-2 -8,-2.8 z"
   id="path332" />
	<path
   class="st1"
   d="m 158.9,124.5 c -2.3,-0.7 -4.6,-1.2 -7,-1.7 v 0 l 0.2,-2.4 v 0 c 2.3,0.4 4.5,1 6.8,1.6 z"
   id="path334" />
	<path
   class="st1"
   d="m 149.4,122.3 c -3.3,-0.5 -6.7,-0.8 -10,-1 v 0 -2.4 0 c 3.4,0.2 6.7,0.6 10.1,1.1 z"
   id="path336" />
	<path
   class="st1"
   d="m 136.7,121.1 c -3.1,-0.1 -6.6,-0.1 -9.6,-0.1 v 0 -2.5 0 c 3.1,-0.1 6.3,-0.1 9.7,0.1 z"
   id="path338" />
	<path
   class="st1"
   d="m 159.8,116.8 c 3.2,0.9 6.4,2.2 9.4,3.7 v 0 2.4 0 c -3.1,-1.4 -6.3,-2.6 -9.6,-3.6 z"
   id="path340" />
	<path
   class="st1"
   d="m 157.5,118.7 c -4,-1.1 -8,-1.9 -12.1,-2.4 v 0 l 0.2,-2.4 v 0 c 4.1,0.5 8.1,1.3 12.1,2.4 z"
   id="path342" />
	<path
   class="st1"
   d="m 143.2,116 c -2.6,-0.3 -5.1,-0.3 -7.7,-0.4 v 0 l -0.1,-2.4 v 0 c 2.6,0.1 5.2,0.2 7.9,0.5 z"
   id="path344" />
	<path
   class="st1"
   d="m 124.6,162.1 c -2.8,0 -5.8,-0.1 -8.9,0 v 0 l -0.1,-2.2 v 0 c 1.7,0.1 4.9,0 9,-0.1 z"
   id="path346" />
	<path
   class="st1"
   d="m 160.2,163.1 c 3.1,0.8 6.1,1.8 9.1,3.1 v 0 2.1 0 c -3.1,-1.1 -6.1,-2.1 -9.1,-2.8 z"
   id="path348" />
	<path
   class="st1"
   d="m 158,165 c -5.1,-1.1 -10.2,-1.9 -15.4,-2.3 v 0 l 0.2,-2.3 v 0 c 5.1,0.4 10.2,1.1 15.2,2.3 z"
   id="path350" />
	<path
   class="st1"
   d="m 140.2,162.5 c -4.4,-0.3 -8.8,-0.4 -13.6,-0.4 v 0 l 0.1,-2.3 v 0 c 4,0 8.7,0 13.8,0.3 z"
   id="path352" />
	<path
   class="st1"
   d="m 136.6,157.7 c -6.4,-0.3 -13.2,-0.3 -20.9,-0.1 v 0 l -0.1,-2.5 v 0 c 3.1,0.2 11,-0.4 21,0 z"
   id="path354" />
	<path
   class="st1"
   d="m 157.9,157.8 c 3.9,0.9 7.7,2.1 11.3,3.7 v 0 2.2 0 c -3.7,-1.3 -7.6,-2.3 -11.4,-3.2 z"
   id="path356" />
	<path
   class="st1"
   d="m 154.7,159.7 c -5.2,-1 -10.4,-1.7 -15.7,-2 v 0 l 0.1,-2.6 v 0 c 5.3,0.3 10.5,0.9 15.7,1.9 z"
   id="path358" />
	<path
   class="st1"
   d="m 127.8,151.9 c -3.8,0 -7.8,0.1 -12.1,0.2 v 0 l -0.1,-2.3 v 0 c 2.1,-0.1 6.3,-0.3 12.1,-0.3 z"
   id="path360" />
	<path
   class="st1"
   d="m 150.7,151.3 c 6.4,1 12.6,2.8 18.6,5.3 v 0 2.1 0 c -6,-2.2 -12.2,-3.9 -18.4,-5 z"
   id="path362" />
	<path
   class="st1"
   d="m 148.3,153.3 c -6,-0.9 -12.1,-1.4 -18.2,-1.3 v 0 l -0.1,-2.3 v 0 c 6.1,0 12.2,0.5 18.2,1.4 z"
   id="path364" />
	<path
   class="st1"
   d="m 139.8,147 c -8.1,-0.5 -16.2,-0.5 -24.2,-0.1 v 0 l -0.1,-2.3 v 0 c 8.1,-0.4 16.2,-0.4 24.2,0.2 z"
   id="path366" />
	<path
   class="st1"
   d="m 161.6,148.5 c 2.6,0.8 5.2,1.7 7.6,2.8 v 0 2 0 c -2.6,-1 -5.1,-1.8 -7.6,-2.4 z"
   id="path368" />
	<path
   class="st1"
   d="m 142.8,144.9 c 5.6,0.6 11.1,1.6 16.5,3 v 0 2.3 0 c -5.4,-1.4 -10.9,-2.4 -16.4,-2.9 z"
   id="path370" />
	<path
   class="st1"
   d="m 131.7,167.3 c -5,-0.1 -10.2,-0.1 -16,0.1 v 0 l -0.1,-2.6 v 0 c 2.5,0.1 8.6,-0.2 16.1,-0.1 z"
   id="path372" />
	<path
   class="st1"
   d="m 153.6,166.7 c 5.4,0.9 10.7,2.6 15.7,4.8 v 0 2.3 0 c -5.1,-1.8 -10.3,-3.3 -15.6,-4.3 z"
   id="path374" />
	<path
   class="st1"
   d="m 150.4,168.9 c -5.3,-0.8 -10.7,-1.3 -16.1,-1.5 v 0 l -0.2,-2.7 v 0 c 5.5,0.1 11,0.6 16.5,1.4 z"
   id="path376" />
	<path
   class="st1"
   d="m 123.3,172.5 c -2.4,0 -5,0 -7.6,0.1 v 0 l -0.1,-2.5 v 0 c 1.5,0.1 4.1,0 7.6,0 z"
   id="path378" />
	<path
   class="st1"
   d="m 157.7,172.9 c 4,0.9 7.9,2.2 11.6,3.9 v 0 2.3 0 c -3.8,-1.4 -7.7,-2.6 -11.7,-3.6 z"
   id="path380" />
	<path
   class="st1"
   d="m 139.2,170.2 c 5.4,0.3 10.7,1 16,2.1 v 0 2.5 0 c -5.3,-1 -10.6,-1.7 -15.9,-2 z"
   id="path382" />
	<path
   class="st1"
   d="m 125.7,170 c 3.3,0 7.1,0 11.3,0.1 v 0 l 0.1,2.5 v 0 c -3.6,-0.2 -7.4,-0.3 -11.2,-0.2 z"
   id="path384" />
	<path
   class="st1"
   d="m 121.7,177.9 c -2,0 -3.9,0.2 -6,0.2 v 0 l -0.1,-2.5 v 0 c 1.2,0 3.3,0 5.9,0 z"
   id="path386" />
	<path
   class="st1"
   d="m 155.4,177.8 c 4.8,1 9.5,2.5 13.9,4.5 v 0 2.3 0 c -4.6,-1.7 -9.2,-3.1 -14,-4.1 z"
   id="path388" />
	<path
   class="st1"
   d="m 141,175.9 c 3.9,0.3 7.9,0.8 11.7,1.5 v 0 2.6 0 c -3.9,-0.7 -7.8,-1.2 -11.8,-1.5 z"
   id="path390" />
	<path
   class="st1"
   d="m 123.4,175.6 c 4.2,-0.1 9.4,-0.1 15.1,0.2 v 0 2.5 0 c -4.7,-0.3 -9.7,-0.4 -15,-0.3 z"
   id="path392" />
	<path
   class="st1"
   d="m 128.2,183.1 c -3.9,0 -8,0.2 -12.4,0.3 v 0 l -0.1,-2.6 v 0 c 2.1,0.1 6.7,-0.1 12.5,-0.2 z"
   id="path394" />
	<path
   class="st1"
   d="m 148.5,181.9 c 7.2,0.9 14.1,2.8 20.8,5.6 v 0 2.3 0 c -6.7,-2.4 -13.7,-4.2 -20.8,-5.3 z"
   id="path396" />
	<path
   class="st1"
   d="m 145.6,184 c -4.6,-0.5 -9.8,-0.8 -14.8,-0.9 v 0 l -0.1,-2.5 v 0 c 4.5,0.1 9.5,0.3 14.9,0.9 z"
   id="path398" />
	<path
   class="st1"
   d="m 124.8,193.2 c -2.9,0 -6,0.1 -9.1,0.1 v 0 l -0.1,-2.4 v 0 c 1.7,0.1 5,-0.1 9.2,-0.1 z"
   id="path400" />
	<path
   class="st1"
   d="m 153.3,192.7 c 5.5,1 10.8,2.6 15.9,4.9 v 0 2.3 0 c -5.2,-2 -10.5,-3.5 -15.9,-4.6 z"
   id="path402" />
	<path
   class="st1"
   d="m 150.9,194.8 c -4.4,-0.7 -8.7,-1.1 -13.3,-1.4 v 0 -2.4 0 c 4.5,0.2 8.9,0.7 13.3,1.4 z"
   id="path404" />
	<path
   class="st1"
   d="m 135.3,193.3 c -2.7,-0.1 -5.8,-0.2 -8.4,-0.2 v 0 l -0.1,-2.5 v 0 c 2.6,0 5.1,0 8.5,0.1 z"
   id="path406" />
	<path
   class="st1"
   d="m 128.1,188.2 c -3.9,0 -7.9,0.1 -12.3,0.1 v 0 l -0.1,-2.4 v 0 c 2.1,0.1 6.5,-0.1 12.4,-0.1 z"
   id="path408" />
	<path
   class="st1"
   d="m 150.6,187.2 c 6.4,0.9 12.7,2.7 18.6,5.4 v 0 2.3 0 c -6,-2.3 -12.3,-4 -18.6,-5.2 z"
   id="path410" />
	<path
   class="st1"
   d="m 148.3,189.5 c -1.4,-0.2 -3.2,-0.4 -4.6,-0.5 v 0 -2.6 0 c 1.6,0.2 3.1,0.4 4.7,0.6 z"
   id="path412" />
	<path
   class="st1"
   d="m 141.4,188.8 c -1.7,-0.1 -3.4,-0.2 -5.1,-0.3 v 0 l -0.1,-2.5 v 0 c 1.9,0.1 3.1,0.2 5.1,0.4 z"
   id="path414" />
	<path
   class="st1"
   d="m 134,188.3 c -1.3,-0.1 -2.5,-0.1 -3.8,-0.1 v 0 l -0.1,-2.5 v 0 c 1.3,0 2.5,0 3.9,0 z"
   id="path416" />
	<path
   class="st1"
   d="m 154.5,198 c 5.1,1 10,2.5 14.7,4.5 v 0 2.3 0 c -4.8,-1.7 -9.7,-3.2 -14.6,-4.3 z"
   id="path418" />
	<path
   class="st1"
   d="m 152.7,200.2 c -1.4,-0.3 -2.8,-0.5 -4.2,-0.7 v 0 -2.6 0 c 1.4,0.2 2.8,0.4 4.2,0.7 z"
   id="path420" />
	<path
   class="st1"
   d="m 146.7,199.3 c -1.4,-0.2 -2.7,-0.3 -4,-0.4 v 0 l -0.1,-2.6 v 0 c 1.3,0.1 2.8,0.3 4.1,0.4 z"
   id="path422" />
	<path
   class="st1"
   d="m 140.6,198.6 c -4.3,-0.3 -7.9,-0.5 -14.4,-0.5 v 0 l -4.2,-2.4 v 0 c 6.1,0 12.8,0 18.5,0.4 z"
   id="path424" />
	<path
   class="st1"
   d="m 158.1,208.9 c 3.8,0.9 7.6,2.2 11.2,3.7 v 0 2.1 0 c -3.6,-1.3 -7.4,-2.4 -11.1,-3.3 z"
   id="path426" />
	<path
   class="st1"
   d="m 155.9,211 c -2.4,-0.5 -4.6,-1 -7,-1.3 v 0 l -0.1,-2.6 v 0 c 2.3,0.4 4.6,0.8 7,1.2 z"
   id="path428" />
	<path
   class="st1"
   d="m 146.5,209.4 c -2.6,-0.3 -5.2,-0.6 -7.5,-0.8 v 0 l -3.2,-2.7 v 0 c 3.1,0.2 6.8,0.4 10.6,0.9 z"
   id="path430" />
	<path
   class="st1"
   d="m 147.9,202 c 7.4,0.9 14.6,2.8 21.4,5.7 v 0 2.1 0 c -6.9,-2.5 -14,-4.3 -21.3,-5.3 z"
   id="path432" />
	<path
   class="st1"
   d="m 145.4,204.2 c -4.2,-0.5 -8.7,-0.7 -12.8,-0.9 v 0 l -3.6,-2.5 v 0 c 4.5,0.1 10,0.3 16.2,0.9 z"
   id="path434" />
	<path
   class="st1"
   d="m 142.1,94.8 c -2.2,0.2 -4.5,0.4 -6.8,0.6 v 0 2.3 0 c 2.3,-0.2 4.5,-0.4 6.6,-0.6 z"
   id="path436" />
	<path
   class="st1"
   d="m 158,97.9 c 4,0.8 7.8,2.3 11.3,4.5 v 0 -2.2 0 c -3.4,-2.2 -7.1,-3.8 -11,-4.7 z"
   id="path438" />
	<path
   class="st1"
   d="m 156.1,95.1 c -1.5,-0.3 -3.1,-0.4 -4.6,-0.5 v 0 l -0.1,2.4 v 0 c 1.5,0.1 3,0.2 4.4,0.5 z"
   id="path440" />
	<path
   class="st1"
   d="m 149.3,94.5 c -1.6,0 -3.3,-0.1 -5,0.1 v 0 l -0.1,2.3 v 0 c 1.7,-0.1 3.3,-0.2 5,-0.2 z"
   id="path442" />
	<path
   class="st1"
   d="m 141.5,99 c -2,0.1 -4,0.2 -6,0.4 v 0 2.3 0 c 2.1,-0.2 4,-0.3 6,-0.4 z"
   id="path444" />
	<path
   class="st1"
   d="m 162.9,105.2 c 2.2,0.9 4.3,2 6.4,3.3 v 0 -2.5 0 c -2,-1.2 -4,-2.3 -6.1,-3.3 z"
   id="path446" />
	<path
   class="st1"
   d="m 160.9,101.7 c -2.1,-0.8 -4.3,-1.4 -6.5,-1.9 v 0 l -0.3,2.3 v 0 c 2.3,0.5 4.6,1.2 6.7,2.1 z"
   id="path448" />
	<path
   class="st1"
   d="m 151.9,99.5 c -2.6,-0.4 -5.3,-0.5 -8,-0.5 v 0 2.4 0 c 2.6,0 5.2,0.1 7.8,0.5 z"
   id="path450" />
	<path
   class="st1"
   d="m 142.6,103.8 c -2.5,0 -4.9,0.1 -7.2,0.3 v 0 2.3 0 c 2.4,-0.3 4.8,-0.4 7.2,-0.3 z"
   id="path452" />
	<path
   class="st1"
   d="m 160.1,109 c 3.2,0.9 6.3,2.2 9.1,3.9 v 0 -2.3 0 c -2.7,-1.8 -5.7,-3.2 -8.8,-4.2 z"
   id="path454" />
	<path
   class="st1"
   d="m 158.2,105.9 c -1.4,-0.4 -2.9,-0.7 -4.4,-1 v 0 l -0.2,2.5 v 0 c 1.5,0.2 2.9,0.5 4.3,0.9 z"
   id="path456" />
	<path
   class="st1"
   d="m 151.5,104.5 c -2.1,-0.3 -4.2,-0.5 -6.3,-0.6 v 0 l -0.1,2.3 v 0 c 2,0.2 4,0.4 6.1,0.7 z"
   id="path458" />
	<path
   class="st1"
   d="m 145.9,108.9 c -3.5,-0.5 -7,-0.6 -10.4,-0.4 v 0 2.2 0 c 3.4,-0.2 6.9,-0.1 10.3,0.4 z"
   id="path460" />
	<path
   class="st1"
   d="m 161.8,114.6 c 3.2,1.1 5.6,1.7 7.5,3 v 0 -2.1 0 c -2.3,-1.4 -4.7,-2.4 -7.3,-3.2 z"
   id="path462" />
	<path
   class="st1"
   d="m 160.1,111.8 c -1.8,-0.5 -3.3,-1 -5.3,-1.4 v 0 l -0.3,2.4 v 0 c 1.8,0.4 3.6,0.8 5.4,1.4 z"
   id="path464" />
	<path
   class="st1"
   d="m 153,110 c -1.7,-0.3 -3.2,-0.6 -4.8,-0.8 v 0 l -0.2,2.2 v 0 c 1.6,0.2 3.2,0.5 4.8,0.8 z"
   id="path466" />
	<path
   class="st1"
   d="m 264.2,75.3 c -23,-23.4 -54.2,-37 -87.1,-37.9 -0.7,-1.3 -1.4,-2.6 -2.2,-3.8 -0.2,-0.3 -0.5,-0.3 -0.8,-0.5 -0.1,-0.1 -0.2,-0.2 -0.3,-0.2 h -0.1 c -0.6,-0.2 -1.2,-0.2 -1.4,0.1 -0.8,1.4 -1.5,2.9 -2.1,4.5 C 101,38.9 45.9,96.4 47.4,165.8 c 1.5,68.6 57.7,123.3 126.3,123 69.8,0 126.7,-56.4 126.7,-125.7 0,-32.9 -13,-64.5 -36.2,-87.8 z M 180,52.3 c 1.9,-0.6 10.2,1.5 11.3,1.5 0.1,0 -10,3.7 -10,3.9 1.7,0 6.5,0.6 7.3,0.6 0.3,0.1 -2.7,3.2 -3.6,4.2 -3.3,-0.9 -6.6,-2.1 -9.7,-3.5 2.7,-3.8 4.1,-6 4.7,-6.7 z m -5.4,8.5 c 3.1,3.5 12.6,15.2 12.6,15.3 -1.1,-0.3 -11.4,-4.8 -12.6,-5.5 z M 173,41.5 c 0.1,0 0.6,13.5 0.5,15.3 0,0.1 -3.3,-3.8 -4.4,-5 0.7,-2.9 3.1,-7.4 3.9,-10.3 z m -17.3,12.7 c 2.9,0.4 15.8,5.3 16.9,5.4 0,2 -10,14.6 -10.1,14.5 0,-2.2 0.7,-8.5 0.5,-10.3 0,-0.7 -7.3,-9.3 -7.3,-9.6 z M 173.9,284 C 99.9,284.5 52.4,221.1 52.4,163.3 52.4,122.4 79,50.1 168.7,41.4 c 0,0 -0.2,0.9 -0.5,2.1 -0.8,2.3 -1.4,4.3 -1.8,5.5 -3.6,0.9 -16.3,1.9 -16.7,2 v 0.1 h -0.1 c 0.4,1.5 10,13.5 10.4,14.8 0.3,0.9 -1,14.8 -1,14.9 4,-1.4 13.5,-6.8 15,-7.2 1.1,-0.3 16.6,7 16.9,7 0,0 0,-0.1 0,-0.1 h 0.1 c -0.1,-2.3 -3.1,-14.4 -2.7,-15.8 0.4,-1.4 10.9,-12.8 10.9,-13 -3.6,-1 -14.7,-2.2 -15.8,-2.8 -0.3,-0.4 -0.6,-0.8 -0.9,-1.2 -0.8,-1.5 -2,-3.9 -3.3,-6.4 0,0 0,-0.1 0,-0.1 82,7 116,72.5 116,121.7 C 295.1,231 240.8,283.6 173.9,284 Z"
   id="path468" />
</g>
<metadata
   id="metadata1370"><rdf:RDF><cc:Work
       rdf:about=""><dc:title>ucsd-seal</dc:title></cc:Work></rdf:RDF></metadata></svg>
