<?xml version="1.0" encoding="UTF-8" standalone="no"?>
<svg
   version="1.0"
   width="394.000000pt"
   height="386.000000pt"
   viewBox="0 0 394.000000 386.000000"
   preserveAspectRatio="xMidYMid meet"
   id="svg2363"
   sodipodi:docname="unict.svg"
   inkscape:version="1.1.1 (3bf5ae0d25, 2021-09-20)"
   xmlns:inkscape="http://www.inkscape.org/namespaces/inkscape"
   xmlns:sodipodi="http://sodipodi.sourceforge.net/DTD/sodipodi-0.dtd"
   xmlns="http://www.w3.org/2000/svg"
   xmlns:svg="http://www.w3.org/2000/svg">
  <defs
     id="defs2367" />
  <sodipodi:namedview
     id="namedview2365"
     pagecolor="#ffffff"
     bordercolor="#666666"
     borderopacity="1.0"
     inkscape:pageshadow="2"
     inkscape:pageopacity="0.0"
     inkscape:pagecheckerboard="0"
     inkscape:document-units="pt"
     showgrid="false"
     inkscape:zoom="0.77914508"
     inkscape:cx="386.32086"
     inkscape:cy="440.86783"
     inkscape:window-width="1920"
     inkscape:window-height="991"
     inkscape:window-x="-9"
     inkscape:window-y="-9"
     inkscape:window-maximized="1"
     inkscape:current-layer="svg2363" />
  <ellipse
     style="fill:#ffffff;stroke-width:0.660977"
     id="path2391"
     cx="197.33168"
     cy="191.76819"
     rx="195.40648"
     ry="183.10486" />
  <g
     transform="matrix(0.08962473,0,0,-0.08666075,25.218676,357.35506)"
     fill="#000000"
     stroke="none"
     id="g2361">
    <path
       d="M 1645,3750 C 1176,3676 737,3412 450,3032 -44,2377 -41,1479 457,818 1042,42 2153,-137 2971,413 c 319,215 591,574 709,936 77,236 108,535 81,787 -49,468 -295,918 -665,1219 -227,184 -521,323 -804,381 -176,36 -469,43 -647,14 z m 591,-80 c 501,-90 931,-379 1199,-805 108,-172 189,-375 237,-595 20,-93 22,-133 22,-340 0,-220 -2,-243 -28,-359 C 3520,916 3066,427 2425,234 c -178,-54 -285,-68 -505,-68 -182,0 -219,3 -331,27 -498,105 -900,379 -1166,797 -55,85 -145,275 -177,370 -76,229 -107,473 -88,701 35,426 198,790 491,1093 292,301 673,488 1092,535 120,14 367,4 495,-19 z"
       id="path2265" />
    <path
       d="m 1935,3659 c -4,-6 1,-16 11,-23 17,-13 15,-20 -28,-122 -25,-62 -51,-110 -60,-112 -10,-2 -30,30 -63,99 -39,83 -46,106 -36,120 21,35 -37,46 -121,22 -26,-7 -22,-32 6,-39 24,-6 25,-7 140,-257 27,-57 41,-77 53,-75 10,2 40,59 83,162 79,187 84,196 110,196 25,0 26,16 1,30 -26,13 -88,13 -96,-1 z"
       id="path2267" />
    <path
       d="m 2130,3647 c 0,-7 5,-18 10,-23 12,-12 -110,-297 -141,-330 -23,-24 -19,-28 29,-39 25,-5 32,-3 32,8 0,9 -5,17 -11,19 -10,3 111,289 132,312 14,16 20,3 48,-110 15,-59 32,-109 38,-111 5,-2 47,23 92,57 44,33 86,60 93,60 8,0 9,-37 5,-136 -4,-109 -9,-139 -23,-155 -16,-18 -15,-20 40,-44 31,-14 61,-25 66,-25 13,0 13,13 -1,27 -7,7 -11,53 -10,125 1,148 9,198 34,219 21,16 21,16 -4,32 -52,34 -70,31 -149,-22 -41,-28 -80,-51 -87,-51 -7,0 -17,19 -23,43 -31,121 -39,136 -78,147 -51,14 -92,13 -92,-3 z"
       id="path2269" />
    <path
       d="m 1506,3615 c -21,-7 -43,-18 -48,-23 -14,-14 -1,-32 22,-32 14,0 22,-11 30,-42 6,-24 15,-56 20,-73 24,-79 41,-188 31,-198 -23,-23 -10,-29 41,-23 64,9 72,14 56,33 -17,21 -88,332 -77,339 5,3 9,12 9,20 0,18 -33,18 -84,-1 z"
       id="path2271" />
    <path
       d="m 1125,3467 c -154,-80 -180,-102 -136,-114 21,-5 42,-77 57,-192 8,-63 10,-64 -106,26 -46,36 -76,67 -78,81 -5,30 -13,28 -62,-16 -28,-25 -41,-43 -36,-51 5,-7 14,-10 22,-7 12,5 148,-90 264,-183 33,-27 60,-27 60,0 0,12 -16,95 -36,185 -32,142 -35,166 -23,192 10,23 17,28 37,24 20,-4 35,-27 84,-130 40,-86 58,-136 56,-156 -2,-17 2,-31 7,-30 24,1 183,85 204,107 17,19 24,41 28,84 6,79 -31,154 -101,201 -72,48 -115,44 -241,-21 z m 186,-19 c 71,-76 110,-206 73,-240 -11,-9 -31,-20 -46,-23 -27,-7 -29,-4 -88,120 -33,70 -60,133 -60,140 0,11 47,32 78,34 7,1 27,-14 43,-31 z"
       id="path2273" />
    <path
       d="m 1711,3214 c -161,-27 -352,-104 -506,-205 -101,-66 -284,-248 -355,-353 -77,-115 -147,-269 -183,-403 -30,-114 -31,-124 -31,-323 0,-188 3,-213 26,-301 100,-372 315,-650 648,-837 75,-42 221,-97 327,-124 122,-30 436,-33 558,-4 339,79 627,272 807,540 76,114 108,178 152,304 52,150 69,254 70,417 0,221 -35,379 -129,571 -126,260 -331,466 -594,599 -97,48 -256,101 -365,120 -108,18 -310,18 -425,-1 z m 349,-74 c 552,-58 991,-480 1076,-1032 20,-127 13,-314 -15,-438 -108,-476 -485,-841 -968,-937 -117,-23 -347,-22 -458,1 -328,71 -618,265 -789,529 -70,108 -87,143 -130,265 -52,151 -70,255 -69,407 1,143 11,217 50,345 108,361 397,667 751,794 182,65 358,86 552,66 z"
       id="path2275" />
    <path
       d="m 1885,2980 c -61,-24 -64,-108 -4,-129 35,-12 73,-1 83,24 12,32 6,75 -14,95 -21,21 -33,23 -65,10 z m 50,-80 c -3,-5 -13,-10 -21,-10 -8,0 -12,5 -9,10 3,6 13,10 21,10 8,0 12,-4 9,-10 z"
       id="path2277" />
    <path
       d="m 1763,2843 c 3,-10 13,-38 23,-63 26,-69 30,-220 9,-356 -20,-133 -16,-199 16,-273 25,-58 57,-81 115,-81 84,0 143,77 151,199 4,51 -1,89 -23,171 -38,140 -40,290 -7,363 18,38 20,49 9,53 -18,7 -73,-21 -108,-54 l -27,-25 -35,31 c -20,17 -52,36 -73,41 -51,15 -56,14 -50,-6 z m 115,-205 c 2,-33 -1,-114 -9,-181 -25,-232 -16,-277 62,-304 l 34,-11 -28,-7 c -33,-9 -74,16 -94,56 -16,31 -16,144 1,294 12,110 9,205 -9,279 -2,12 5,1 16,-23 12,-24 24,-71 27,-103 z"
       id="path2279" />
    <path
       d="m 1279,2623 c -6,-16 -15,-36 -20,-45 -14,-27 -11,-45 9,-54 12,-5 1,-10 -38,-15 -61,-8 -77,-4 -60,16 9,11 8,24 -6,54 -20,45 -35,55 -57,38 -18,-15 -33,-107 -18,-107 6,0 11,-4 11,-9 0,-9 -109,-37 -114,-29 -1,1 -13,20 -25,40 -12,20 -31,40 -43,44 -28,8 -41,-15 -24,-41 20,-31 24,-101 30,-505 3,-201 9,-429 13,-506 8,-129 11,-145 35,-181 30,-45 79,-72 178,-96 81,-20 155,-52 182,-79 21,-21 21,-21 34,-2 28,40 60,65 99,74 102,25 144,42 182,75 64,55 67,69 60,303 -10,319 -30,662 -39,662 -4,0 -8,8 -8,17 0,9 -5,31 -12,49 -9,26 -8,40 5,76 18,50 42,187 33,195 -10,10 -38,-7 -43,-26 -3,-11 -11,-22 -19,-25 -8,-3 -14,-17 -14,-32 0,-26 -1,-26 -47,-19 -27,4 -49,8 -51,10 -2,2 4,15 13,29 10,15 13,30 9,38 -5,7 -9,18 -10,23 0,6 -2,16 -2,23 -1,6 -13,12 -27,12 -19,0 -28,-8 -40,-37 -11,-25 -12,-40 -5,-47 24,-24 10,-36 -45,-36 -55,0 -65,6 -43,28 9,9 8,16 -5,30 -9,10 -17,26 -17,35 0,17 -26,47 -41,47 -5,0 -14,-12 -20,-27 z m -243,-189 c -33,-8 -65,-13 -70,-11 -13,5 70,25 104,25 14,0 -2,-6 -34,-14 z m 212,-32 c 3,-18 -2,-22 -26,-22 -38,0 -51,27 -19,40 30,12 41,7 45,-18 z m 80,6 c 3,-13 -3,-18 -22,-18 -20,0 -26,5 -26,21 0,15 5,20 22,17 13,-2 24,-11 26,-20 z m 72,2 c 0,-15 -7,-20 -25,-20 -18,0 -25,5 -25,20 0,15 7,20 25,20 18,0 25,-5 25,-20 z m 68,-8 c 2,-14 -2,-22 -12,-22 -19,0 -29,17 -22,36 8,22 30,12 34,-14 z m -301,-15 c -2,-7 -16,-13 -30,-15 -21,-3 -27,1 -27,17 0,10 6,21 13,24 17,6 49,-12 44,-26 z m 375,8 c -5,-26 -8,-29 -27,-22 -8,4 -15,16 -15,27 0,16 5,21 23,18 16,-2 21,-9 19,-23 z m 74,-12 c -3,-8 -6,-17 -6,-19 0,-2 -6,-4 -14,-4 -21,0 -30,19 -16,35 14,17 43,8 36,-12 z m -541,-9 c 0,-10 -8,-20 -18,-22 -22,-4 -35,27 -16,39 20,12 34,5 34,-17 z m -75,-13 c 0,-28 -21,-37 -36,-16 -16,22 -10,35 17,35 12,0 19,-7 19,-19 z m 485,-71 c 49,-6 94,-15 98,-19 5,-5 -96,-12 -225,-15 -128,-4 -257,-9 -285,-11 -71,-6 -67,9 7,25 140,30 264,36 405,20 z m 46,-130 c 6,-48 3,-60 -19,-92 -26,-39 -50,-64 -56,-57 -2,2 -7,48 -11,101 l -7,96 29,5 c 54,8 58,5 64,-53 z m -407,41 c 3,-4 8,-47 11,-94 8,-105 -3,-118 -52,-61 -28,34 -33,46 -33,95 0,31 3,59 7,62 9,10 61,9 67,-2 z m 219,2 c 3,-5 8,-78 12,-164 l 7,-157 -31,-33 c -33,-37 -48,-35 -83,12 -15,20 -18,47 -19,176 -1,83 2,156 6,162 7,12 101,15 108,4 z m 64,1 c -3,-3 -12,-4 -19,-1 -8,3 -5,6 6,6 11,1 17,-2 13,-5 z m -387,-40 c 0,-30 -16,-28 -38,4 -14,21 -13,22 12,22 21,0 26,-5 26,-26 z m 570,6 c 0,-5 -4,-10 -10,-10 -5,0 -10,5 -10,10 0,6 5,10 10,10 6,0 10,-4 10,-10 z m 60,-82 c 0,-46 5,-137 10,-203 11,-142 14,-464 5,-473 -4,-4 -23,11 -43,33 -19,22 -75,83 -122,135 -110,120 -180,200 -180,204 0,2 24,32 53,68 179,221 261,318 268,318 5,0 9,-37 9,-82 z m -457,65 c -7,-2 -19,-2 -25,0 -7,3 -2,5 12,5 14,0 19,-2 13,-5 z m 227,-3 c 0,-5 -9,-10 -19,-10 -11,0 -23,5 -26,10 -4,6 5,10 19,10 14,0 26,-4 26,-10 z m -410,-64 c 25,-29 94,-108 153,-175 63,-70 106,-128 104,-136 -3,-7 -43,-59 -89,-115 -46,-56 -105,-129 -131,-163 -50,-64 -62,-74 -70,-60 -9,15 -19,373 -11,373 5,0 22,-16 38,-36 28,-36 29,-37 10,-51 -16,-12 -17,-15 -4,-23 8,-5 18,-10 23,-10 13,0 7,-20 -7,-20 -20,0 -39,-27 -32,-46 6,-15 9,-15 30,5 22,20 28,21 66,11 23,-6 44,-9 47,-6 11,11 -7,36 -27,36 -26,0 -26,26 0,33 11,3 20,10 20,17 0,7 -9,14 -20,17 -24,6 -24,12 -5,37 8,11 15,29 15,40 -1,20 -2,20 -14,4 -20,-27 -31,-22 -31,15 0,26 -4,33 -22,35 -25,4 -31,-16 -11,-36 9,-9 9,-15 0,-24 -8,-8 -21,-5 -52,17 l -40,28 v 143 c 0,79 3,144 8,143 4,0 27,-24 52,-53 z m 190,8 c 0,-9 -7,-14 -17,-12 -25,5 -28,28 -4,28 12,0 21,-6 21,-16 z m 220,6 c 0,-5 -12,-10 -26,-10 -14,0 -23,4 -19,10 3,6 15,10 26,10 10,0 19,-4 19,-10 z m -220,-65 c 0,-8 -6,-15 -14,-15 -17,0 -28,14 -19,24 12,12 33,6 33,-9 z m 220,5 c 0,-5 -9,-10 -20,-10 -11,0 -20,5 -20,10 0,6 9,10 20,10 11,0 20,-4 20,-10 z m 0,-50 c 0,-5 -9,-10 -20,-10 -11,0 -20,5 -20,10 0,6 9,10 20,10 11,0 20,-4 20,-10 z m -217,-15 c -4,-15 -36,-12 -41,3 -3,9 3,13 19,10 13,-1 23,-7 22,-13 z m 132,-255 c 36,-37 40,-70 44,-323 2,-159 0,-185 -14,-197 -14,-11 -23,-10 -61,8 -24,12 -44,27 -44,34 0,7 -5,109 -10,227 l -11,214 23,33 c 13,19 28,34 34,34 5,0 23,-14 39,-30 z m 95,-120 c 0,-5 -7,-10 -15,-10 -8,0 -15,5 -15,10 0,6 7,10 15,10 8,0 15,-4 15,-10 z m -210,-15 c 0,-8 -9,-15 -20,-15 -11,0 -20,7 -20,15 0,8 9,15 20,15 11,0 20,-7 20,-15 z m -66,-82 c 8,-83 10,-219 2,-231 -5,-9 -60,-1 -72,11 -2,2 -7,46 -10,99 l -7,96 33,41 c 18,23 37,41 40,41 4,0 10,-26 14,-57 z m 281,47 c 4,-6 -5,-10 -20,-10 -15,0 -24,4 -20,10 3,6 12,10 20,10 8,0 17,-4 20,-10 z m 84,-35 41,-45 v -94 -94 l -41,-7 c -22,-4 -42,-5 -43,-3 -8,8 -14,288 -7,288 5,0 27,-20 50,-45 z m -299,14 c 0,-14 -5,-19 -17,-17 -26,5 -29,38 -4,38 15,0 21,-6 21,-21 z m 215,-39 c -3,-5 -13,-10 -21,-10 -8,0 -14,5 -14,10 0,6 9,10 21,10 11,0 17,-4 14,-10 z m -210,-20 c 0,-22 -39,-19 -43,3 -3,15 1,18 20,15 12,-2 23,-10 23,-18 z m 215,-35 c 0,-8 -9,-15 -20,-15 -11,0 -20,7 -20,15 0,8 9,15 20,15 11,0 20,-7 20,-15 z m -210,-26 c 0,-16 -31,-22 -43,-10 -9,9 -9,14 2,20 16,10 41,4 41,-10 z m 385,-10 c 0,-7 -8,-15 -17,-17 -18,-3 -25,18 -11,32 10,10 28,1 28,-15 z m -565,-9 c 0,-5 -7,-10 -15,-10 -8,0 -15,5 -15,10 0,6 7,10 15,10 8,0 15,-4 15,-10 z m 390,-15 c 0,-8 -9,-15 -20,-15 -20,0 -26,11 -13,23 12,13 33,7 33,-8 z m 220,-6 c 0,-6 -4,-7 -10,-4 -5,3 -10,11 -10,16 0,6 5,7 10,4 6,-3 10,-11 10,-16 z m -660,-9 c 0,-5 -4,-10 -10,-10 -5,0 -10,5 -10,10 0,6 5,10 10,10 6,0 10,-4 10,-10 z m 225,-10 c 0,-8 -8,-16 -17,-18 -13,-2 -18,3 -18,18 0,15 5,20 18,18 9,-2 17,-10 17,-18 z m 395,0 c 0,-5 -7,-10 -15,-10 -8,0 -15,5 -15,10 0,6 7,10 15,10 8,0 15,-4 15,-10 z m -573,-6 c -3,-3 -12,-4 -19,-1 -8,3 -5,6 6,6 11,1 17,-2 13,-5 z m 401,-22 c 2,-7 -7,-12 -22,-12 -27,0 -35,15 -13,23 17,7 30,3 35,-11 z m -223,-21 c 7,-12 -12,-24 -25,-16 -11,7 -4,25 10,25 5,0 11,-4 15,-9 z m 220,-30 c 3,-5 1,-13 -5,-16 -15,-9 -43,3 -35,15 8,13 32,13 40,1 z m -218,-17 c -3,-3 -12,-4 -19,-1 -8,3 -5,6 6,6 11,1 17,-2 13,-5 z"
       id="path2281" />
    <path
       d="m 1510,1914 c 0,-10 7,-14 22,-12 32,5 35,28 4,28 -17,0 -26,-5 -26,-16 z"
       id="path2283" />
    <path
       d="m 1440,1879 c 0,-6 16,-34 36,-61 33,-47 34,-51 18,-63 -16,-11 -16,-15 -5,-29 12,-15 10,-21 -14,-46 -16,-17 -27,-32 -24,-34 2,-2 33,0 68,5 46,7 68,6 78,-3 11,-9 16,-9 23,2 11,18 -6,50 -25,50 -18,0 -19,5 -3,30 10,16 10,22 -5,32 -17,12 -16,16 8,67 14,29 23,56 19,60 -4,3 -9,0 -11,-7 -3,-7 -12,-19 -20,-28 -14,-14 -17,-13 -27,8 -15,30 -42,31 -39,1 3,-29 -3,-29 -44,3 -18,14 -33,20 -33,13 z"
       id="path2285" />
    <path
       d="m 1042,1909 c 2,-6 8,-10 13,-10 5,0 11,4 13,10 2,6 -4,11 -13,11 -9,0 -15,-5 -13,-11 z"
       id="path2287" />
    <path
       d="m 2698,2393 c -21,-5 -132,-228 -124,-248 9,-24 54,-18 72,10 13,20 24,25 60,25 35,0 47,-5 60,-25 21,-33 74,-36 74,-4 0,11 -20,68 -46,127 -40,95 -58,124 -74,121 -3,-1 -13,-3 -22,-6 z m 25,-117 c 6,-16 -19,-30 -28,-16 -7,11 2,30 15,30 4,0 10,-6 13,-14 z"
       id="path2289" />
    <path
       d="m 2651,2085 c -40,-18 -85,-19 -113,-4 -15,8 -31,8 -59,0 -39,-12 -99,-55 -99,-73 0,-5 -12,-34 -26,-64 -28,-60 -41,-65 -91,-34 l -33,20 v -31 c 0,-23 -4,-30 -17,-27 -17,3 -26,23 -38,81 -7,35 -40,37 -49,2 -15,-60 29,-149 87,-176 57,-26 99,-24 169,8 56,25 62,26 87,12 37,-21 51,-55 51,-125 v -62 l -70,-4 c -60,-3 -103,-18 -89,-32 2,-2 73,-7 157,-10 128,-5 152,-4 152,8 0,24 34,28 158,21 134,-7 154,-1 133,39 -20,37 -2,224 20,210 5,-3 9,-17 9,-32 0,-28 15,-60 24,-51 3,2 8,35 12,71 6,61 4,73 -21,124 -34,69 -87,106 -186,128 -84,20 -124,20 -168,1 z m 155,-31 c 86,-20 112,-33 157,-83 37,-41 51,-88 23,-78 -8,3 -19,0 -24,-6 -12,-14 -30,-103 -35,-168 -5,-62 -11,-69 -59,-69 h -40 l 7,59 c 9,77 -4,105 -42,90 -37,-14 -57,-5 -43,20 6,12 16,18 25,15 10,-4 15,0 15,11 0,11 -5,15 -15,11 -8,-3 -15,-1 -15,4 0,24 -20,7 -28,-22 -8,-31 -11,-33 -53,-32 -24,0 -51,4 -61,8 -15,7 -16,-2 -15,-86 l 2,-93 h -30 c -30,0 -30,1 -36,65 -6,72 -19,100 -60,124 -37,22 -60,20 -103,-9 -57,-39 -155,-29 -195,18 -16,21 -5,21 29,2 14,-8 51,-14 82,-15 48,0 58,3 63,20 3,11 4,24 0,30 -3,5 1,20 9,32 8,13 19,42 26,65 9,35 18,47 52,64 40,20 51,21 133,4 20,-4 45,0 75,14 54,25 70,25 156,5 z m -490,-202 c -10,-2 -22,0 -28,6 -6,6 0,7 19,4 21,-5 23,-7 9,-10 z m 494,-111 c 0,-14 -3,-42 -6,-62 l -6,-36 -72,-11 c -41,-6 -75,-7 -80,-2 -11,11 -20,104 -13,125 5,12 23,15 92,13 84,-2 85,-2 85,-27 z"
       id="path2291" />
    <path
       d="m 2589,2010 c 0,-3 -2,-30 -5,-60 -7,-85 -20,-103 -42,-57 l -11,22 v -25 c -1,-29 15,-50 39,-50 17,0 45,63 35,79 -3,5 0,21 7,36 10,21 9,29 -5,43 -9,9 -17,14 -18,12 z"
       id="path2293" />
    <path
       d="m 2440,1985 c -7,-9 -10,-19 -6,-22 8,-9 38,9 44,25 5,17 -23,15 -38,-3 z"
       id="path2295" />
    <path
       d="m 2668,1874 c -5,-4 -8,-19 -8,-33 0,-18 3,-22 11,-14 6,6 9,21 7,33 -1,12 -6,18 -10,14 z"
       id="path2297" />
    <path
       d="m 2696,1844 c -8,-29 -3,-39 13,-29 13,8 15,55 2,55 -5,0 -12,-12 -15,-26 z"
       id="path2299" />
    <path
       d="m 1878,2024 c -58,-31 -66,-107 -18,-156 27,-26 36,-30 68,-25 49,8 82,46 82,96 0,40 -11,59 -50,85 -30,20 -47,20 -82,0 z m 82,-113 c -6,-12 -18,-21 -27,-21 -13,0 -12,5 7,25 27,29 37,27 20,-4 z"
       id="path2301" />
    <path
       d="m 1925,1811 c -117,-38 -140,-132 -89,-366 35,-160 35,-263 1,-368 -21,-65 -23,-79 -11,-84 27,-10 73,19 101,63 16,24 31,44 34,44 3,0 14,-9 25,-21 39,-44 134,-76 134,-46 0,6 -10,37 -22,67 -19,48 -22,74 -21,195 0,84 7,179 18,238 9,54 14,112 10,130 -13,59 -52,114 -98,136 -46,22 -50,23 -82,12 z m 30,-51 c -3,-5 -12,-10 -19,-10 -42,0 -59,-152 -31,-285 8,-39 14,-99 13,-135 0,-36 -3,-54 -5,-40 -2,14 -10,61 -18,105 -43,245 -41,326 8,360 24,17 62,21 52,5 z m 86,-187 c -9,-16 -10,-14 -11,12 0,21 3,26 11,18 8,-8 8,-16 0,-30 z"
       id="path2303" />
    <path
       d="m 2783,1573 c -64,-3 -83,-7 -83,-18 0,-20 32,-26 139,-28 60,-1 94,2 102,11 29,28 -25,40 -158,35 z"
       id="path2305" />
    <path
       d="m 2423,1540 c -61,-25 -14,-34 227,-45 109,-5 123,-4 107,8 -31,25 -293,54 -334,37 z"
       id="path2307" />
    <path
       d="m 2640,1471 c -48,-6 -55,-22 -16,-32 31,-9 156,1 156,12 0,20 -70,30 -140,20 z"
       id="path2309" />
    <path
       d="m 2866,1471 c -3,-5 0,-11 8,-14 15,-6 26,1 26,15 0,11 -27,10 -34,-1 z"
       id="path2311" />
    <path
       d="m 2492,1413 c -13,-3 -21,-10 -19,-16 2,-8 37,-12 110,-11 94,0 130,6 116,18 -7,6 -182,13 -207,9 z"
       id="path2313" />
    <path
       d="m 1922,1013 c -36,-18 -55,-52 -45,-80 12,-35 56,-73 84,-73 35,0 79,50 79,91 0,28 -29,69 -49,69 -5,0 -15,2 -23,5 -7,2 -28,-3 -46,-12 z m 58,-98 c -12,-15 -40,-21 -40,-9 0,3 10,14 23,24 24,20 37,9 17,-15 z"
       id="path2315" />
    <path
       d="m 693,3152 c -91,-93 -153,-166 -153,-179 0,-23 53,-115 61,-106 4,5 4,30 -1,58 -8,53 8,95 37,95 20,0 216,-188 226,-217 5,-13 12,-23 15,-23 14,1 73,80 67,90 -4,6 -10,8 -14,5 -11,-6 -70,39 -165,128 -94,87 -97,107 -16,107 62,0 66,17 10,49 l -40,22 z"
       id="path2317" />
    <path
       d="m 2965,3163 c -48,-25 -106,-85 -127,-131 -34,-74 -4,-163 66,-196 23,-11 36,-23 34,-33 -5,-30 19,-24 73,19 29,23 65,42 78,43 38,0 36,20 -10,70 -48,52 -59,55 -59,19 0,-44 -74,-93 -111,-74 -23,13 -26,68 -5,108 19,36 93,106 134,127 67,33 132,-6 132,-80 0,-25 3,-45 7,-45 3,0 21,11 40,26 34,26 44,54 19,54 -7,0 -25,15 -40,34 -51,67 -162,96 -231,59 z"
       id="path2319" />
    <path
       d="m 3284,2930 c -11,-24 -237,-170 -264,-170 -28,0 -25,-21 9,-72 15,-24 39,-63 53,-88 20,-37 30,-46 58,-48 50,-5 57,12 16,37 -35,22 -76,70 -76,89 0,15 111,83 123,75 5,-3 6,-23 3,-44 -4,-24 -2,-39 4,-39 16,0 90,49 90,60 0,5 -16,16 -35,24 -19,8 -35,19 -35,23 0,5 20,20 45,35 l 45,28 31,-42 c 25,-36 29,-48 24,-80 -8,-46 9,-51 44,-14 l 22,24 -22,43 c -32,65 -107,179 -117,179 -5,0 -13,-9 -18,-20 z"
       id="path2321" />
    <path
       d="m 454,2856 c -3,-8 -3,-19 0,-24 3,-5 -4,-18 -15,-28 -36,-33 -52,-74 -46,-123 10,-94 71,-102 187,-25 71,46 108,54 134,28 38,-38 -4,-115 -71,-131 -48,-11 -51,-25 -12,-61 36,-34 49,-33 49,4 0,13 9,29 21,36 28,18 57,67 59,103 4,62 -1,78 -34,111 -41,41 -83,45 -138,11 -20,-12 -57,-35 -83,-51 -37,-23 -51,-27 -64,-19 -32,21 -2,75 57,100 41,17 39,36 -5,64 -29,18 -34,19 -39,5 z"
       id="path2323" />
    <path
       d="m 3484,2603 c -4,-15 -39,-32 -141,-67 -77,-28 -145,-46 -159,-43 -27,5 -31,-13 -14,-57 11,-30 26,-34 32,-8 4,11 37,28 102,51 53,18 100,31 103,28 3,-3 -34,-59 -81,-124 -94,-127 -104,-160 -51,-155 17,1 90,17 164,35 101,24 135,29 138,20 3,-7 11,-13 19,-13 16,0 19,37 4,74 -11,30 -26,34 -32,8 -4,-14 -27,-24 -91,-40 -94,-24 -107,-26 -107,-14 0,4 32,50 71,102 98,131 103,143 84,179 -20,39 -35,48 -41,24 z"
       id="path2325" />
    <path
       d="m 218,2240 c -17,-10 -22,-33 -33,-162 l -6,-66 58,5 c 70,6 275,-12 303,-27 27,-14 35,8 44,117 6,80 6,82 -20,102 -25,19 -74,29 -74,15 0,-3 14,-23 30,-44 30,-38 35,-55 24,-84 -5,-12 -20,-16 -59,-16 -29,0 -60,3 -69,6 -20,8 -20,33 0,55 22,25 9,39 -36,39 -46,0 -58,-14 -35,-40 31,-35 13,-49 -52,-43 -71,7 -79,13 -67,54 7,24 18,35 44,44 46,16 51,40 9,49 -39,8 -40,8 -61,-4 z"
       id="path2327" />
    <path
       d="m 3601,2186 c -7,-8 -67,-20 -162,-31 -128,-15 -152,-16 -159,-4 -22,34 -27,-8 -16,-129 8,-82 12,-95 34,-112 13,-11 31,-20 38,-20 19,0 6,72 -17,89 -19,13 -27,65 -11,74 4,3 35,8 69,12 54,6 64,4 69,-10 4,-10 -2,-28 -15,-45 -11,-16 -21,-32 -21,-35 0,-9 105,-5 120,5 13,9 11,14 -12,31 -17,12 -28,30 -28,44 0,21 6,24 55,30 31,4 58,5 62,2 3,-3 8,-27 10,-52 5,-38 1,-51 -22,-85 -35,-50 -24,-68 24,-39 l 33,20 -4,117 c -6,144 -17,175 -47,138 z"
       id="path2329" />
    <path
       d="m 534,1943 c -6,-10 -49,-40 -95,-67 -162,-95 -231,-139 -236,-153 -12,-31 20,-42 224,-73 68,-10 130,-24 138,-30 27,-22 -1,-48 -73,-69 -154,-46 -204,-55 -225,-42 -34,22 -43,-1 -23,-64 17,-56 37,-70 54,-39 5,9 47,27 93,41 164,47 190,53 210,43 12,-7 20,-7 24,1 8,12 -13,98 -26,114 -5,5 -9,28 -9,52 0,46 -12,54 -41,28 -23,-21 -68,-10 -73,19 -11,52 -14,81 -9,93 7,18 56,43 83,43 18,0 20,6 20,60 0,62 -14,78 -36,43 z m -106,-217 3,-37 -53,7 c -29,3 -56,10 -61,13 -9,9 83,62 98,57 6,-1 11,-19 13,-40 z"
       id="path2331" />
    <path
       d="m 3258,1825 c -4,-61 -2,-64 37,-58 19,3 50,2 70,-1 35,-7 36,-9 30,-39 -11,-50 -32,-67 -82,-67 -56,0 -78,-12 -91,-49 -11,-31 2,-71 27,-79 10,-3 12,3 6,27 l -7,31 h 50 c 32,0 54,5 62,15 19,23 37,18 43,-13 10,-50 43,-77 94,-77 40,0 49,4 78,38 38,44 54,98 62,212 6,90 -6,116 -36,77 -16,-21 -18,-21 -160,-9 -94,8 -146,17 -149,25 -2,7 -10,12 -17,12 -8,0 -14,-16 -17,-45 z m 315,-81 c 41,-12 9,-138 -39,-150 -36,-9 -90,20 -99,53 -5,23 2,88 12,106 5,8 86,2 126,-9 z"
       id="path2333" />
    <path
       d="m 3196,1504 c -9,-24 -7,-64 3,-64 5,0 11,5 13,12 6,17 68,-29 68,-50 0,-9 -11,-41 -25,-69 l -24,-53 h -50 c -27,0 -53,5 -56,10 -3,6 -10,10 -15,10 -9,0 -60,-83 -60,-99 0,-13 -25,-44 -97,-122 -46,-48 -53,-61 -53,-97 0,-22 3,-47 6,-56 10,-25 24,-19 24,11 0,34 33,103 64,132 l 25,23 38,-28 c 102,-77 209,-168 217,-185 13,-27 17,-25 54,22 32,43 33,59 5,59 -19,0 -260,179 -268,199 -3,8 1,21 10,30 12,12 51,16 217,18 178,2 205,5 215,20 23,31 31,22 -145,161 -72,57 -133,110 -136,118 -7,19 -22,18 -30,-2 z m 182,-165 c 28,-23 49,-46 46,-50 -5,-9 -154,-13 -154,-4 0,11 45,95 51,95 3,0 29,-19 57,-41 z"
       id="path2335" />
    <path
       d="m 552,1438 c 3,-7 21,-16 42,-19 47,-8 58,-19 60,-64 l 1,-36 -132,-63 c -95,-46 -134,-61 -142,-53 -8,8 -14,8 -22,0 -7,-7 -3,-25 15,-62 28,-54 41,-63 50,-33 8,23 247,142 287,142 27,0 31,3 26,23 -7,31 -57,149 -69,165 -14,17 -121,17 -116,0 z"
       id="path2337" />
    <path
       d="m 745,1199 c -9,-26 -231,-172 -265,-173 -20,-1 -24,-6 -22,-26 3,-30 48,-90 68,-90 7,0 14,8 14,18 0,24 13,35 135,117 70,46 107,65 122,62 41,-8 44,15 10,66 -35,51 -52,58 -62,26 z"
       id="path2339" />
    <path
       d="m 803,1060 c -30,-12 -31,-45 -2,-37 37,10 80,-4 91,-29 16,-33 -22,-103 -88,-163 -91,-83 -162,-81 -150,6 7,50 -4,60 -39,37 -28,-18 -33,-42 -10,-50 8,-4 15,-14 15,-23 0,-33 55,-74 107,-78 138,-13 269,159 209,275 -29,56 -85,82 -133,62 z"
       id="path2341" />
    <path
       d="m 2790,899 c -25,-22 -65,-50 -90,-62 -47,-23 -59,-50 -45,-104 7,-30 21,-23 28,17 6,29 75,90 103,90 16,0 86,-90 81,-104 -2,-6 -21,-10 -41,-9 -20,1 -36,-1 -36,-6 0,-4 14,-27 30,-49 32,-44 56,-55 47,-23 -3,12 3,27 15,38 19,17 21,17 49,-17 37,-46 36,-62 -6,-84 -26,-14 -46,-17 -85,-13 -27,3 -50,2 -50,-3 0,-14 60,-60 79,-60 17,0 53,23 159,103 59,44 69,72 23,62 -22,-5 -31,-1 -43,17 -9,13 -47,63 -87,112 -56,71 -69,94 -65,113 9,35 -14,28 -66,-18 z"
       id="path2343" />
    <path
       d="m 1027,903 c -4,-3 -7,-14 -7,-23 0,-22 -187,-250 -205,-250 -31,0 -27,-25 10,-57 43,-37 68,-39 70,-6 1,11 37,65 81,118 43,53 85,105 93,116 7,10 22,19 32,19 34,0 32,22 -4,56 -34,33 -56,41 -70,27 z"
       id="path2345" />
    <path
       d="m 1162,774 c -60,-41 -67,-120 -21,-229 27,-64 30,-79 21,-100 -15,-33 -27,-32 -68,9 -24,24 -34,43 -34,65 0,41 -19,40 -47,-2 -28,-41 -30,-60 -4,-52 13,4 24,-1 33,-14 7,-10 30,-29 51,-41 49,-29 96,-21 131,21 36,42 33,79 -13,178 -39,84 -42,105 -13,129 24,18 48,15 79,-12 25,-22 28,-30 27,-85 0,-34 2,-61 6,-61 9,0 80,106 80,120 0,5 -9,10 -21,10 -11,0 -34,14 -51,31 -51,50 -113,64 -156,33 z"
       id="path2347" />
    <path
       d="m 2361,533 c -7,-76 -14,-150 -16,-164 -5,-42 9,-55 40,-41 14,7 37,12 52,12 21,0 24,-3 19,-24 -8,-31 0,-36 37,-24 43,14 54,25 39,40 -18,18 -14,46 8,53 23,7 27,42 6,70 -13,18 -15,18 -30,2 -10,-9 -21,-17 -25,-17 -4,0 -27,52 -51,115 -24,63 -48,115 -55,115 -7,0 -16,-48 -24,-137 z m 59,-110 c 0,-7 -9,-13 -20,-13 -22,0 -23,3 -13,39 6,23 7,23 20,6 7,-11 13,-25 13,-32 z"
       id="path2349" />
    <path
       d="m 2118,610 c -37,-5 -72,-11 -78,-15 -11,-7 -14,-62 -2,-68 4,-3 31,0 60,6 65,14 84,2 58,-38 -26,-39 -18,-69 19,-70 39,0 58,-37 49,-94 -12,-73 -63,-100 -126,-67 -35,19 -48,2 -21,-26 51,-51 170,-19 207,55 32,67 -7,157 -74,172 l -29,6 26,57 c 39,89 40,92 7,91 -16,-1 -59,-5 -96,-9 z"
       id="path2351" />
    <path
       d="m 2622,598 c -35,-35 14,-102 57,-78 14,7 21,21 21,38 0,33 -16,52 -45,52 -12,0 -26,-5 -33,-12 z"
       id="path2353" />
    <path
       d="m 1652,557 c -41,-42 -53,-67 -31,-67 19,0 -13,-167 -43,-227 -14,-29 -13,-30 46,-38 46,-7 48,-7 37,13 -8,14 -7,34 3,73 14,51 56,265 56,282 0,19 -30,3 -68,-36 z"
       id="path2355" />
    <path
       d="M 1869,505 C 1720,267 1730,286 1756,276 c 9,-3 36,-6 60,-6 48,0 66,-18 44,-45 -17,-21 -9,-26 46,-33 l 47,-5 -7,35 c -7,38 3,48 45,48 16,0 19,7 19,45 0,25 -4,45 -10,45 -5,0 -10,-4 -10,-10 0,-5 -9,-10 -20,-10 -18,0 -20,8 -22,122 -2,80 -7,123 -14,125 -7,2 -36,-35 -65,-82 z m 1,-125 c 0,-36 -2,-40 -25,-40 -30,0 -31,8 -7,49 23,41 32,39 32,-9 z"
       id="path2357" />
    <path
       d="m 1410,490 c -15,-29 -3,-59 26,-66 30,-8 54,11 54,40 0,46 -59,64 -80,26 z"
       id="path2359" />
  </g>
</svg>
